<svg width="25" height="25" viewBox="0 0 25 25" fill="none" xmlns="http://www.w3.org/2000/svg">
<rect width="25" height="25" rx="4" fill="#274E7D"/>
<path d="M10.8571 8.75V10.625H15.1429V8.75C15.1429 7.46094 14.1786 6.40625 13 6.40625C11.7946 6.40625 10.8571 7.46094 10.8571 8.75ZM9.57143 10.625V8.75C9.57143 6.69922 11.0982 5 13 5C14.875 5 16.4286 6.69922 16.4286 8.75V10.625H17.2857C18.2232 10.625 19 11.4746 19 12.5V18.125C19 19.1797 18.2232 20 17.2857 20H8.71429C7.75 20 7 19.1797 7 18.125V12.5C7 11.4746 7.75 10.625 8.71429 10.625H9.57143ZM8.28571 12.5V18.125C8.28571 18.3887 8.47321 18.5938 8.71429 18.5938H17.2857C17.5 18.5938 17.7143 18.3887 17.7143 18.125V12.5C17.7143 12.2656 17.5 12.0312 17.2857 12.0312H8.71429C8.47321 12.0312 8.28571 12.2656 8.28571 12.5Z" fill="white"/>
</svg>
