<svg width="25" height="25" viewBox="0 0 25 25" fill="none" xmlns="http://www.w3.org/2000/svg">
<rect width="25" height="25" rx="4" fill="#274E7D"/>
<path d="M21.9136 9.98072C22.4242 12.4488 20.6371 15.5126 17.4884 15.5126H14.7652L15.3609 13.4701C15.446 12.9594 15.9566 12.5339 16.5523 12.5339H17.4033C18.5096 12.5339 19.1904 11.5977 18.9351 10.6616C18.7649 9.89561 18.1692 9.38497 17.4033 9.38497H15.7013L13.5738 17.5552C13.4036 18.0658 12.893 18.4062 12.2973 18.4062H10.2549L13.2334 7.34242C13.3185 6.83178 13.8291 6.40625 14.4248 6.40625H17.5735C19.6159 6.40625 21.403 7.85306 21.9136 9.98072ZM8.55288 12.3637C6.42538 12.3637 6.51048 15.5126 8.55288 15.5126H9.57408C9.91448 15.5126 10.1698 15.8531 10.0847 16.1935L9.48898 18.4062H8.46778C5.57438 18.4062 3.44688 15.768 4.12768 12.8743C4.80848 10.5765 6.59558 9.38497 8.46778 9.38497H11.8718L11.3612 11.4275C11.191 11.9382 10.7655 12.3637 10.1698 12.3637H8.55288Z" fill="white"/>
</svg>
