<svg width="25" height="25" viewBox="0 0 25 25" fill="none" xmlns="http://www.w3.org/2000/svg">
<g id="Property 1=upgrade">
<rect width="25" height="25" rx="4" fill="#274E7D"/>
<path id="up-from-line" d="M8.74554 10.3571H10.5536C10.9888 10.3571 11.3571 10.7254 11.3571 11.1607V15.1786H13.5V11.1607C13.5 10.7254 13.8348 10.3571 14.3036 10.3571H16.0781L12.4286 6.67411L8.74554 10.3571ZM12.4286 5C12.7969 5 13.1652 5.16741 13.433 5.43527L17.317 9.3192C17.6183 9.62054 17.7857 10.0223 17.7857 10.4241C17.7857 11.2946 17.0826 11.9643 16.2121 11.9643H15.1071V15.1786C15.1071 16.0826 14.3705 16.7857 13.5 16.7857H11.3571C10.4531 16.7857 9.75 16.0826 9.75 15.1786V11.9643H8.61161C7.74107 11.9643 7.07143 11.2946 7.07143 10.4241C7.07143 10.0223 7.20536 9.62054 7.5067 9.3192L11.3906 5.43527C11.6585 5.16741 12.0268 5 12.4286 5ZM6.80357 18.3929H18.0536C18.4888 18.3929 18.8571 18.7612 18.8571 19.1964C18.8571 19.6652 18.4888 20 18.0536 20H6.80357C6.33482 20 6 19.6652 6 19.1964C6 18.7612 6.33482 18.3929 6.80357 18.3929Z" fill="white"/>
</g>
</svg>
