<svg width="25" height="25" viewBox="0 0 25 25" fill="none" xmlns="http://www.w3.org/2000/svg">
<rect width="25" height="25" rx="4" fill="#274E7D"/>
<path d="M7 8.5C6.71875 8.5 6.5 8.75 6.5 9V9.71875L11.875 14.125C12.5312 14.6562 13.4375 14.6562 14.0938 14.125L19.5 9.71875V9C19.5 8.75 19.25 8.5 19 8.5H7ZM6.5 11.6562V17C6.5 17.2812 6.71875 17.5 7 17.5H19C19.25 17.5 19.5 17.2812 19.5 17V11.6562L15.0625 15.2812C13.8438 16.2812 12.125 16.2812 10.9375 15.2812L6.5 11.6562ZM5 9C5 7.90625 5.875 7 7 7H19C20.0938 7 21 7.90625 21 9V17C21 18.125 20.0938 19 19 19H7C5.875 19 5 18.125 5 17V9Z" fill="white"/>
</svg>
