<svg xmlns="http://www.w3.org/2000/svg" width="1216" height="366" viewBox="0 0 1216 366" version="1.1"><path d="M 240.833 13.501 C 239.706 14.627, 202.055 24.788, 196.500 25.464 C 193.200 25.866, 188.983 26.826, 187.128 27.598 C 185.273 28.369, 180.988 29, 177.605 29 C 173.163 29, 169.281 29.837, 163.627 32.014 C 159.323 33.672, 152.820 35.776, 149.177 36.691 C 145.534 37.607, 141.588 39.322, 140.406 40.503 C 137.253 43.656, 132.025 45.659, 131.053 44.085 C 130.221 42.739, 125.629 44.383, 121.250 47.594 C 119.821 48.642, 119 48.820, 119 48.082 C 119 46.502, 125.933 40.099, 135 33.304 C 143.634 26.834, 148 22.975, 148 21.813 C 148 20.278, 142.373 21.001, 137.938 23.106 C 135.497 24.264, 132.150 26.427, 130.500 27.913 C 128.850 29.398, 122.325 33.939, 116 38.002 C 109.675 42.065, 103.375 46.356, 102 47.535 C 100.625 48.715, 95.225 51.843, 90 54.486 C 84.775 57.129, 79.263 60.157, 77.750 61.214 C 73.488 64.193, 74.238 61.401, 79.971 52.943 C 82.706 48.910, 84.754 45.421, 84.523 45.190 C 84.292 44.959, 80.455 48.081, 75.996 52.126 C 71.537 56.172, 67.279 59.824, 66.534 60.241 C 65.788 60.658, 64.190 63.041, 62.983 65.536 C 61.470 68.660, 57.396 73.079, 49.902 79.722 C 43.915 85.029, 38.767 90.160, 38.461 91.124 C 37.854 93.036, 33.328 97.077, 27.400 101 C 21.290 105.042, 16.144 110.737, 15.432 114.243 C 14.952 116.604, 12.882 119.150, 7.904 123.500 C 1.720 128.904, 1.036 129.872, 1.019 133.250 C 1.007 135.708, 1.457 137, 2.326 137 C 3.056 137, 8.352 137.473, 14.095 138.051 C 30.303 139.682, 51.777 137.286, 67.500 132.091 C 74.100 129.910, 82.716 126.757, 86.646 125.084 C 99.066 119.796, 115.200 114.392, 124 112.572 C 130.891 111.147, 136.001 110.894, 151 111.239 C 161.175 111.473, 174.113 112.289, 179.750 113.052 C 188.392 114.222, 190 114.718, 190 116.220 C 190 117.495, 189.220 118, 187.250 118.001 C 178.641 118.006, 167.149 121.226, 153.131 127.561 C 121.002 142.083, 108.554 148.925, 98 157.864 C 94.975 160.425, 90.375 164.224, 87.779 166.304 C 85.182 168.385, 80.907 173.036, 78.279 176.640 C 75.650 180.245, 71.366 185.903, 68.758 189.215 C 62.946 196.593, 54.685 210.872, 51.445 219.139 C 48.410 226.884, 44.370 245.178, 43.525 255 C 42.787 263.577, 45.014 275.750, 50.042 290.623 C 59.295 317.999, 88.041 342.660, 126.500 356.218 C 141.706 361.578, 142.875 361.858, 157 363.514 C 169.849 365.021, 232.061 365.681, 235.536 364.348 C 237.011 363.782, 236.927 363.531, 234.891 362.442 C 232.655 361.245, 232.809 361.111, 238.274 359.523 L 244 357.858 244 345.025 L 244 332.192 238.750 334.998 C 235.863 336.541, 231.025 338.126, 228 338.521 C 224.975 338.915, 220.804 340.098, 218.732 341.149 C 211.730 344.699, 189.849 346.060, 172.272 344.039 C 165.367 343.245, 162.232 342.199, 152.772 337.532 C 137.140 329.820, 133.058 327.213, 130.906 323.565 C 129.881 321.829, 127.737 319.442, 126.140 318.261 C 124.083 316.741, 121.922 312.962, 118.733 305.307 C 112.403 290.112, 110.792 282.465, 110.715 267.240 C 110.654 255.067, 110.796 254.150, 113.908 246.626 C 115.700 242.296, 117.414 237.222, 117.718 235.352 C 118.154 232.665, 118.642 232.069, 120.041 232.513 C 121.489 232.973, 121.933 232.294, 122.476 228.787 C 123.065 224.986, 124.316 223.366, 133.501 214.500 C 143.638 204.716, 147.685 199, 144.475 199 C 143.664 199, 143 198.550, 143 198 C 143 197.450, 142.127 197, 141.059 197 C 136.553 197, 137.627 193.700, 144.379 186.800 C 146.371 184.764, 148 182.627, 148 182.050 C 148 180.227, 151.579 180.905, 156.511 183.662 C 159.131 185.127, 161.101 185.912, 160.887 185.408 C 157.726 177.925, 156.853 174.721, 157.392 172.575 C 158.064 169.896, 170.762 157.139, 180.672 149.185 C 193.929 138.546, 218.194 130.019, 235.250 130.006 L 244 130 244 92 L 244 54 235.353 54 C 217.578 54, 203.373 58.182, 158.323 76.675 C 157.560 76.988, 157.333 76.443, 157.678 75.125 C 158.028 73.785, 159.811 72.559, 162.906 71.531 C 165.488 70.673, 171.782 67.268, 176.892 63.963 C 189.340 55.914, 206.099 46.288, 212.919 43.272 C 215.974 41.921, 224.217 37.427, 231.237 33.285 L 244 25.753 244 19.377 C 244 14.729, 243.638 13, 242.667 13 C 241.933 13, 241.108 13.225, 240.833 13.501 M 204.757 183.526 C 199.948 184.227, 194.593 185.295, 192.857 185.900 C 191.122 186.505, 188.585 187, 187.219 187 C 184.696 187, 170.979 194.348, 161 201.047 C 152.498 206.754, 139.375 221.957, 135.196 230.942 C 132.004 237.805, 131.679 239.328, 131.662 247.500 C 131.639 258.322, 134.041 264.493, 141.511 272.801 C 146.577 278.436, 150.372 280.872, 156 282.103 C 157.925 282.524, 161.525 283.388, 164 284.024 C 169.180 285.354, 181.258 284.725, 181.801 283.098 C 182.002 282.494, 183.235 282, 184.541 282 C 187.789 282, 197.690 271.775, 198.997 267.071 C 201.807 256.953, 198.939 247.140, 190.938 239.500 C 186.722 235.474, 180 222.811, 180 218.895 C 180 216.629, 182.374 211.666, 185.181 208.065 C 187.977 204.477, 192.257 202.184, 202.247 198.919 C 210.282 196.294, 212.505 196, 224.347 196 C 231.588 196, 238.973 196.419, 240.757 196.930 L 244 197.860 244 189.930 L 244 182 228.750 182.126 C 220.363 182.196, 209.566 182.826, 204.757 183.526" stroke="none" fill="#ba141c" fill-rule="evenodd"/><path d="M 261.142 6.263 C 250.495 9.654, 242.283 12.594, 242.892 12.797 C 243.546 13.015, 244 15.746, 244 19.467 L 244 25.768 230.250 33.873 C 222.688 38.331, 216.950 41.964, 217.500 41.946 C 218.050 41.929, 232.856 33.496, 250.401 23.207 C 272.733 10.112, 282.547 3.825, 283.119 2.250 C 284.288 -0.971, 283.273 -0.786, 261.142 6.263 M 230 16 C 225.325 17.542, 222.175 18.813, 223 18.824 C 223.825 18.836, 228.325 17.577, 233 16.027 C 237.675 14.477, 240.825 13.206, 240 13.203 C 239.175 13.199, 234.675 14.458, 230 16 M 139.559 21.532 C 138.491 22.339, 138.127 23, 138.750 23 C 139.373 23, 140.160 22.550, 140.500 22 C 141.191 20.882, 148 20.605, 148 21.695 C 148 22.078, 146.762 23.765, 145.250 25.445 L 142.500 28.500 145.750 25.563 C 147.537 23.948, 149 22.035, 149 21.313 C 149 19.495, 142.038 19.657, 139.559 21.532 M 126.196 40.298 C 124.438 42.111, 123 44.110, 123 44.739 C 123 45.367, 122.474 46.207, 121.830 46.605 C 121.021 47.105, 120.868 46.737, 121.333 45.414 C 121.984 43.558, 121.959 43.559, 120.502 45.441 C 119.676 46.509, 119.007 47.859, 119.015 48.441 C 119.024 49.024, 119.467 48.825, 120 48 C 120.533 47.175, 120.976 46.907, 120.985 47.405 C 120.993 47.903, 121.788 47.597, 122.752 46.725 C 125.600 44.147, 130.201 42.707, 131.075 44.121 C 131.971 45.571, 137.987 43.461, 139.350 41.218 C 139.818 40.449, 141.618 39.202, 143.350 38.449 C 145.083 37.695, 145.747 37.061, 144.827 37.039 C 143.906 37.018, 141.881 38.058, 140.327 39.351 C 135.704 43.197, 132.878 44.421, 131.980 42.968 C 131.389 42.011, 130.473 41.988, 127.958 42.865 C 123.289 44.492, 123.242 44.377, 127 40.500 C 128.866 38.575, 130.167 37, 129.892 37 C 129.617 37, 127.954 38.484, 126.196 40.298 M 244 91.964 L 244 129.928 234.250 130.254 C 228.887 130.434, 233.136 130.676, 243.691 130.791 C 254.246 130.906, 263.135 131.409, 263.444 131.910 C 263.753 132.410, 267.268 133.400, 271.253 134.109 C 275.656 134.893, 281.957 137.091, 287.310 139.712 C 310.182 150.910, 322.528 154.680, 341 156.108 C 348.425 156.682, 357.526 156.866, 361.224 156.518 C 371.742 155.527, 391.767 155.853, 398.211 157.121 C 401.428 157.754, 404.361 157.972, 404.728 157.606 C 406 156.333, 400.097 151.663, 393.878 149.023 C 390.437 147.563, 387.463 145.890, 387.268 145.305 C 387.057 144.670, 389.570 143.958, 393.518 143.535 C 399.180 142.929, 400.278 142.484, 401.221 140.414 C 401.826 139.086, 402.762 138, 403.300 138 C 403.839 138, 404.853 137.215, 405.555 136.256 C 406.622 134.796, 408.164 134.560, 415.004 134.807 C 422.309 135.070, 423.514 134.849, 426.339 132.727 C 428.078 131.421, 430.246 130.078, 431.159 129.743 C 432.071 129.407, 435.836 127.299, 439.526 125.057 C 444.509 122.030, 448.044 120.701, 453.269 119.890 C 461.007 118.690, 468.243 115.950, 471.435 113.011 C 480.669 104.511, 483 102.116, 483 101.132 C 483 99.168, 479.157 99.888, 470.487 103.477 C 465.867 105.389, 456.780 108.604, 450.294 110.621 C 438.816 114.190, 437.987 114.301, 419.396 114.734 C 401.235 115.158, 399.903 115.058, 392.396 112.717 C 388.053 111.363, 381.707 109.953, 378.294 109.583 C 371.704 108.869, 359.174 104.999, 355.359 102.500 C 354.100 101.675, 352.140 101, 351.003 101 C 349.866 101, 347.338 100.332, 345.385 99.516 C 342.175 98.175, 341.896 97.751, 342.478 95.100 C 343.575 90.107, 342.021 85.117, 338.222 81.427 C 334.518 77.830, 325.401 73.001, 322.312 72.999 C 321.315 72.999, 317.740 71.693, 314.367 70.097 C 310.994 68.502, 305.594 66.631, 302.367 65.940 C 299.140 65.249, 296.073 64.305, 295.550 63.842 C 295.028 63.379, 291.792 63, 288.359 63 C 284.926 63, 281.886 62.625, 281.603 62.166 C 280.743 60.776, 295.773 58.986, 308.250 58.993 C 314.712 58.997, 320 58.735, 320 58.410 C 320 58.086, 318.988 56.976, 317.750 55.944 C 315.746 54.271, 313.645 54.064, 298.500 54.046 C 283.234 54.028, 280.727 54.273, 273.919 56.447 C 264.982 59.302, 247.719 61.069, 249.750 58.922 C 250.438 58.195, 251 56.790, 251 55.800 C 251 54.410, 250.204 54, 247.500 54 L 244 54 244 91.964 M 170.500 68.001 C 168.850 69.094, 165.410 70.687, 162.855 71.540 C 159.898 72.527, 158.024 73.802, 157.698 75.046 C 157.091 77.366, 157.666 77.432, 161 75.423 L 163.500 73.917 161 74.571 C 157.090 75.594, 159.861 73.569, 165 71.649 C 167.475 70.723, 170.625 69.084, 172 68.006 C 175.248 65.458, 174.342 65.455, 170.500 68.001 M 550.486 95.468 C 511.721 103.910, 489 135.810, 489 181.797 C 489 189.201, 489.650 198.204, 490.512 202.750 C 495.934 231.334, 510.847 252.926, 532.500 263.546 C 544.361 269.364, 550.378 270.504, 569 270.465 C 584.800 270.432, 585.866 270.301, 594.118 267.380 C 605.972 263.184, 615.811 256.443, 621.707 248.476 C 624.304 244.967, 626.520 242.187, 626.632 242.298 C 626.743 242.410, 627.403 248.013, 628.097 254.751 L 629.359 267 636.180 267 L 643 267 643 223 L 643 179 606.500 179 L 570 179 570 187 L 570 195 598.453 195 L 626.906 195 626.363 200.250 C 623.575 227.233, 608.316 246.291, 584.500 252.538 C 576.709 254.581, 561.283 254.563, 553.535 252.501 C 540.123 248.932, 529.049 241.381, 521.996 230.995 C 513.678 218.745, 509.203 204.506, 508.303 187.422 C 507.358 169.471, 510.472 154.409, 518.158 139.755 C 522.595 131.297, 533.734 120.170, 541.878 116.060 C 562.804 105.501, 591.096 109.268, 608.188 124.889 C 614.253 130.432, 619.558 139.385, 620.586 145.811 L 621.256 150 631.239 150 L 641.223 150 640.586 146.250 C 638.225 132.358, 630.635 118.957, 620.438 110.680 C 612.692 104.393, 600.614 98.586, 590 96.047 C 579.987 93.652, 560.162 93.362, 550.486 95.468 M 138.250 111.746 C 143.613 111.925, 152.387 111.925, 157.750 111.746 C 163.113 111.566, 158.725 111.419, 148 111.419 C 137.275 111.419, 132.887 111.566, 138.250 111.746 M 191 142.186 C 187.975 143.914, 183.475 146.929, 181 148.888 C 175.248 153.439, 159.783 167.998, 158.591 169.985 C 158.090 170.818, 161.465 167.824, 166.091 163.332 C 177.066 152.671, 184.023 147.121, 192 142.663 C 195.575 140.666, 198.050 139.034, 197.500 139.037 C 196.950 139.041, 194.025 140.458, 191 142.186 M 705.831 139.954 C 691.619 142.562, 680.613 148.458, 674.579 156.697 C 670.120 162.785, 667 171.857, 667 178.733 L 667 184.078 675.739 183.789 L 684.477 183.500 685.259 178.054 C 686.086 172.284, 689.271 165.937, 693.158 162.308 C 694.449 161.102, 698.205 158.852, 701.503 157.308 C 706.695 154.877, 708.708 154.502, 716.500 154.515 C 727.427 154.534, 733.918 157.018, 739.845 163.447 C 744.532 168.533, 746.406 173.705, 745.731 179.695 C 744.676 189.055, 737.300 192.660, 713.385 195.502 C 688.562 198.452, 678.689 201.558, 670.685 208.936 C 663.598 215.469, 661.501 221.306, 661.500 234.500 C 661.500 244.476, 661.747 245.966, 664.150 250.500 C 671.170 263.742, 685.760 270.935, 705.701 270.983 C 720.529 271.018, 729.683 267.390, 740.076 257.356 L 746.670 250.991 748.314 256.907 C 750.795 265.830, 752.803 267, 765.635 267 L 776 267 776 259.019 L 776 251.038 771.747 251.621 C 768.256 252.100, 767.158 251.833, 765.617 250.129 C 762.799 247.016, 762.077 235.812, 763.005 209.586 C 764.279 173.563, 762.213 160.526, 753.783 151.381 C 746.869 143.880, 736.741 140.279, 720.500 139.548 C 715 139.300, 708.399 139.483, 705.831 139.954 M 1029.552 140.144 C 1020.121 141.353, 1013.635 144.560, 1006.500 151.541 L 1000.500 157.413 1000.206 150.206 L 999.912 143 990.956 143 L 982 143 982 205 L 982 267 991 267 L 1000 267 1000 228.210 C 1000 196.586, 1000.283 188.333, 1001.533 183.535 C 1004.736 171.239, 1011.234 163.127, 1021.880 158.135 C 1026.726 155.863, 1028.809 155.502, 1037 155.513 C 1044.797 155.523, 1047.217 155.911, 1050.500 157.675 C 1055.930 160.593, 1060.438 165.501, 1063.199 171.500 C 1065.476 176.448, 1065.503 176.966, 1065.814 221.750 L 1066.128 267 1075.064 267 L 1084 267 1083.992 223.750 C 1083.988 198.323, 1083.551 177.821, 1082.933 174 C 1081.317 164.012, 1077.592 156.763, 1070.884 150.553 C 1064.219 144.382, 1057.310 141.377, 1046.583 139.983 C 1038.574 138.941, 1038.959 138.938, 1029.552 140.144 M 1145.973 139.992 C 1124.091 143.477, 1111.156 155.542, 1108.007 175.406 C 1107.368 179.435, 1107.282 182.682, 1107.801 183.201 C 1108.290 183.690, 1112.247 183.957, 1116.595 183.795 L 1124.500 183.500 1125.113 178.479 C 1126.368 168.201, 1132.336 160.901, 1142.668 157.008 C 1147.517 155.181, 1150.035 154.875, 1157.602 155.195 C 1165.416 155.525, 1167.645 156.043, 1173.362 158.857 C 1182.774 163.491, 1185 167.018, 1185 177.298 C 1185 181.606, 1184.537 185.997, 1183.970 187.055 C 1181.750 191.204, 1175.207 192.979, 1152.747 195.525 C 1122.223 198.984, 1109.759 205.396, 1104.041 220.581 C 1101.027 228.586, 1101.458 243.041, 1104.925 250.236 C 1114.835 270.800, 1146.099 277.214, 1172.006 263.997 C 1174.431 262.760, 1178.791 259.276, 1181.693 256.254 C 1185.009 252.804, 1187.107 251.271, 1187.336 252.131 C 1190.811 265.157, 1193.205 267, 1206.648 267 L 1216 267 1216 259.123 L 1216 251.246 1211.750 251.666 C 1209.412 251.897, 1206.943 251.706, 1206.262 251.242 C 1203.052 249.051, 1201.547 227.513, 1202.874 202.746 C 1204.546 171.516, 1202.024 158.886, 1192.334 149.954 C 1187.419 145.423, 1182.039 142.818, 1174.071 141.109 C 1166.577 139.501, 1152.553 138.944, 1145.973 139.992 M 894.105 141.583 C 885.787 143.819, 879.113 147.862, 871.973 154.987 C 864.360 162.584, 859.743 170.777, 856.975 181.596 C 854.423 191.577, 854.123 222.213, 856.489 231.297 C 862.857 255.745, 883.759 270.938, 911.090 270.985 C 936.740 271.029, 957.058 257.405, 962.458 236.540 C 963.306 233.262, 964 229.041, 964 227.161 L 964 223.742 955.759 224.461 C 951.227 224.856, 947.206 225.372, 946.825 225.608 C 946.443 225.844, 945.419 228.486, 944.549 231.479 C 942.474 238.616, 934.128 247.808, 926.178 251.712 C 921.114 254.198, 919.418 254.500, 910.500 254.500 C 901.567 254.500, 899.890 254.200, 894.783 251.693 C 881.172 245.010, 873.444 232.640, 871.707 214.750 L 871.246 210 918.760 210 L 966.274 210 965.583 200.583 C 964.709 188.673, 961.818 176.500, 957.930 168.353 C 951.694 155.286, 938.661 145.018, 923.897 141.537 C 915.892 139.651, 901.206 139.673, 894.105 141.583 M 838.500 142.039 C 826.734 144.451, 818.547 149.746, 811.287 159.640 L 806.500 166.165 806.218 154.582 L 805.937 143 797.968 143 L 790 143 790 205 L 790 267 799 267 L 808 267 808 230.710 C 808 190.546, 808.455 186.640, 814.179 177.721 C 821.046 167.020, 836.377 159.069, 850.250 159.015 L 854 159 854 150 L 854 141 848.250 141.110 C 845.087 141.170, 840.700 141.588, 838.500 142.039 M 901.500 156.338 C 886.498 161.336, 875.166 175.008, 873.393 190.250 L 872.725 196 910.381 196 L 948.038 196 947.443 193.250 C 942.206 169.054, 930.639 156.639, 912.218 155.442 C 908.123 155.176, 903.938 155.526, 901.500 156.338 M 444.782 181.461 C 442.977 183.915, 440.928 185.940, 440.229 185.961 C 439.529 185.982, 438.479 187.050, 437.894 188.334 C 436.314 191.802, 419.081 203.013, 412.842 204.631 C 409.414 205.520, 401.770 206.002, 391.032 206.006 C 381.939 206.009, 372.925 206.419, 371 206.917 C 365.803 208.262, 357 208.835, 357 207.828 C 357 207.346, 358.112 206.528, 359.472 206.011 C 361.652 205.182, 363.982 200.648, 362.824 199.490 C 362.594 199.261, 359.953 199.730, 356.953 200.532 C 353.954 201.334, 347.858 202.278, 343.407 202.630 C 329.820 203.706, 320.925 201.020, 302 190.126 C 299.525 188.702, 295.475 186.963, 293 186.263 C 279.526 182.453, 274.370 181.961, 244.500 181.631 C 228 181.449, 221.137 181.469, 229.250 181.676 L 244 182.052 244 189.956 L 244 197.860 240.757 196.930 C 238.973 196.419, 231.210 196.089, 223.507 196.199 L 209.500 196.398 224.500 196.977 C 238.504 197.518, 254.897 199.933, 259.500 202.134 C 267.096 205.765, 281 215.325, 281 216.917 C 281 217.386, 283.040 220.248, 285.534 223.277 C 289.674 228.307, 290.238 229.664, 292.034 238.928 C 294.393 251.098, 294.481 255.732, 292.500 263.339 C 291.675 266.506, 291 269.865, 291 270.802 C 291 271.739, 288.750 277.229, 286 283 C 283.250 288.771, 281 294.044, 281 294.717 C 281 295.390, 279.695 296.905, 278.101 298.084 C 276.506 299.263, 274.444 301.907, 273.518 303.960 C 269.904 311.973, 241.006 334.817, 231.668 337.041 C 228.922 337.695, 228.833 337.806, 231 337.880 C 232.375 337.926, 235.862 336.661, 238.750 335.069 L 244 332.175 244 345.029 L 244 357.884 239.250 359.421 C 236.638 360.266, 235.850 360.692, 237.500 360.368 C 239.150 360.044, 243.140 359.455, 246.368 359.059 C 250.593 358.541, 252.692 357.747, 253.868 356.224 C 255.229 354.460, 256.992 353.997, 264.500 353.433 C 269.450 353.061, 275.525 351.949, 278 350.963 C 280.475 349.976, 284.164 348.938, 286.198 348.656 C 288.232 348.374, 291.599 346.985, 293.680 345.571 C 295.761 344.157, 298.205 343, 299.110 343 C 300.015 343, 301.315 342.325, 302 341.500 C 302.798 340.538, 305.012 340, 308.172 340 C 310.882 340, 314.340 339.358, 315.857 338.574 C 317.374 337.789, 326.987 334.207, 337.219 330.612 C 349.660 326.241, 358.336 322.525, 363.411 319.393 C 370.143 315.239, 372.538 313, 370.250 313 C 369.837 313, 363.425 314.863, 356 317.139 C 334.359 323.775, 330.867 324.664, 324 325.290 L 317.500 325.883 320.986 324.192 C 322.903 323.261, 325.828 321.203, 327.486 319.617 C 329.144 318.031, 331.969 316.110, 333.764 315.347 C 336.347 314.251, 336.934 313.496, 336.577 311.731 C 336.329 310.504, 335.876 307.641, 335.570 305.368 C 335.052 301.516, 335.214 301.154, 337.974 300.011 C 341.197 298.676, 341.340 298.375, 343.042 289.409 C 343.762 285.616, 345.386 281.619, 347.349 278.812 C 349.082 276.334, 352.361 271.650, 354.636 268.403 C 356.911 265.156, 364.196 256.556, 370.825 249.290 C 377.454 242.025, 384.719 233.587, 386.970 230.540 C 389.221 227.493, 391.625 225, 392.312 225 C 393.771 225, 416.298 211.900, 425.305 205.814 C 434.661 199.491, 442.816 191.991, 445.461 187.277 C 447.801 183.103, 449.673 177, 448.611 177 C 448.310 177, 446.587 179.007, 444.782 181.461 M 189.793 203.883 C 188.305 204.839, 186.097 206.878, 184.887 208.416 L 182.688 211.211 184.844 209.865 C 186.030 209.125, 187.004 208.065, 187.010 207.509 C 187.015 206.954, 188.703 205.507, 190.760 204.294 C 192.817 203.081, 194.050 202.102, 193.500 202.117 C 192.950 202.133, 191.282 202.928, 189.793 203.883 M 148 212 C 143.481 216.950, 140.009 221, 140.284 221 C 140.559 221, 144.481 216.950, 149 212 C 153.519 207.050, 156.991 203, 156.716 203 C 156.441 203, 152.519 207.050, 148 212 M 744.847 203.480 C 743.600 204.739, 733.329 206.968, 719.452 208.990 C 702.935 211.397, 692.986 214.153, 687.500 217.840 C 680.208 222.742, 677.007 233.293, 680.370 241.343 C 683.619 249.119, 695.191 255.029, 707.066 254.976 C 727.462 254.884, 741.690 242.898, 745.022 223 C 746.140 216.324, 746.014 202.301, 744.847 203.480 M 1160.793 208.603 C 1134.546 213.122, 1126.433 216.267, 1121.274 223.922 C 1117.482 229.549, 1118.506 238.769, 1123.700 245.765 C 1129.375 253.408, 1144.040 256.904, 1156.749 253.645 C 1169.327 250.419, 1177.548 244.224, 1182.155 234.500 C 1184.777 228.966, 1184.998 227.587, 1184.999 216.750 C 1185 205.200, 1184.962 205.002, 1182.750 205.105 C 1181.513 205.163, 1171.632 206.738, 1160.793 208.603 M 129.664 217.903 C 125.999 221.699, 123.014 225.412, 123.030 226.153 C 123.047 226.909, 123.541 226.623, 124.155 225.500 C 124.757 224.400, 127.993 220.688, 131.346 217.250 C 134.699 213.813, 137.192 211, 136.885 211 C 136.579 211, 133.329 214.106, 129.664 217.903 M 191.091 239.787 C 194.066 242.969, 196.684 245.448, 196.909 245.295 C 197.500 244.892, 187.673 234.236, 186.591 234.108 C 186.091 234.049, 188.116 236.604, 191.091 239.787 M 200.179 258 C 200.075 261.025, 199.542 265.107, 198.997 267.071 C 197.667 271.857, 187.790 282, 184.458 282 C 183.106 282, 182 282.450, 182 283 C 182 283.550, 180.988 284.052, 179.750 284.116 C 177.898 284.211, 177.828 284.317, 179.356 284.710 C 180.377 284.973, 181.705 284.695, 182.306 284.094 C 182.908 283.492, 184.213 283, 185.207 283 C 186.200 283, 189.701 280.270, 192.986 276.934 C 199.674 270.141, 201.322 266.051, 200.736 257.705 L 200.370 252.500 200.179 258 M 94.644 342.232 C 95.267 343.240, 113.077 352.256, 113.537 351.797 C 113.717 351.616, 109.425 349.205, 103.999 346.438 C 98.573 343.671, 94.363 341.779, 94.644 342.232 M 183.250 344.742 C 186.963 344.934, 193.037 344.934, 196.750 344.742 C 200.463 344.549, 197.425 344.392, 190 344.392 C 182.575 344.392, 179.537 344.549, 183.250 344.742" stroke="none" fill="#db1822" fill-rule="evenodd"/></svg>