<svg xmlns="http://www.w3.org/2000/svg" width="2560" height="402" viewBox="0 0 2560 402" version="1.1"><path d="M 1498.500 1.125 C 1484.226 2.339, 1468.367 4.733, 1459.309 7.042 C 1443.763 11.004, 1428.476 20.062, 1419.131 30.849 C 1404.884 47.294, 1401.573 59.775, 1400.318 101.750 L 1399.683 123 1374.842 123 L 1350 123 1350 147.500 L 1350 172 1374.500 172 L 1399 172 1399 285 L 1399 398 1424.946 398 L 1450.891 398 1450.284 285 L 1449.677 172 1485.197 172 L 1520.717 172 1543.858 148.515 C 1556.586 135.598, 1567 124.573, 1567 124.015 C 1567 123.340, 1547.525 123, 1508.853 123 L 1450.706 123 1451.406 106.165 C 1452.506 79.716, 1455.957 68.140, 1465.555 58.697 C 1475.494 48.919, 1488.323 45.152, 1515.088 44.155 L 1532.675 43.500 1555.025 21.750 L 1577.374 -0 1542.937 0.137 C 1523.997 0.213, 1504 0.658, 1498.500 1.125 M 1300 64.017 L 1300 90.034 1325.250 89.767 L 1350.500 89.500 1350.767 63.750 L 1351.034 38 1325.517 38 L 1300 38 1300 64.017 M 1676.500 121.674 C 1634.050 123.767, 1599.116 133.062, 1575.334 148.591 C 1567.071 153.987, 1555.987 165.476, 1551.222 173.585 C 1539.814 192.999, 1534.552 221.371, 1534.637 263 C 1534.724 304.953, 1541.021 335.354, 1553.420 353.685 C 1560.860 364.684, 1577.053 377.492, 1592.308 384.444 C 1607.744 391.479, 1630.366 397.254, 1654 400.194 C 1668.322 401.975, 1727.835 401.963, 1742 400.175 C 1796.983 393.235, 1831.999 374.940, 1846.746 345.446 C 1856.312 326.316, 1860.969 299.005, 1860.989 261.924 C 1861.012 220.344, 1854.945 189.836, 1843.050 171.713 C 1829.348 150.837, 1806.002 136.795, 1771.500 128.676 C 1746.137 122.707, 1709.828 120.031, 1676.500 121.674 M 2368.500 121.624 C 2355.141 122.359, 2333.438 125.135, 2321.685 127.612 C 2273.789 137.705, 2246.379 158.423, 2235.654 192.638 C 2224.446 228.396, 2223.960 289.875, 2234.587 327.500 C 2246.040 368.052, 2277.404 389.573, 2339 399.149 C 2351.999 401.169, 2357.226 401.407, 2389.500 401.442 C 2428.435 401.485, 2438.283 400.661, 2461.883 395.385 C 2504.392 385.881, 2532.085 366.415, 2542.453 338.750 L 2544.983 332 2513.991 332 C 2495.200 332, 2483 332.372, 2483 332.945 C 2483 334.788, 2471.725 341.928, 2465.659 343.926 C 2450.181 349.024, 2418.296 351.515, 2379 350.695 C 2316.572 349.392, 2299.224 343.401, 2289.982 319.954 C 2287.933 314.755, 2284.536 296.490, 2283.715 286.250 L 2283.294 281 2418.101 281 L 2552.909 281 2553.606 277.288 C 2554.678 271.573, 2553.275 234.880, 2551.492 222 C 2549.491 207.550, 2545.856 192.916, 2541.912 183.444 C 2528.143 150.369, 2492.001 130.312, 2434 123.556 C 2420.707 122.008, 2382.184 120.872, 2368.500 121.624 M 2028 124.986 C 2010.857 126.020, 2000.098 127.477, 1987.456 130.478 C 1970.423 134.521, 1962.811 137.940, 1951.306 146.716 L 1948 149.237 1948 143.619 L 1948 138 1922.500 138 L 1897 138 1897 268.500 L 1897 399 1922.500 399 L 1948 399 1948.015 312.750 C 1948.031 219.040, 1947.984 219.913, 1953.624 208.731 C 1955.089 205.826, 1959.502 200.304, 1963.547 196.313 C 1976.136 183.893, 1994.662 176.619, 2020.481 173.959 C 2038.136 172.140, 2074.448 173.236, 2087.312 175.976 C 2099.774 178.631, 2111.300 182.832, 2119.261 187.622 C 2127.420 192.531, 2137.060 202.365, 2140.331 209.117 C 2146.123 221.071, 2146 218.822, 2146 312.710 L 2146 399 2171.068 399 L 2196.135 399 2195.700 304.250 C 2195.329 223.579, 2195.029 208.163, 2193.679 200.500 C 2186.536 159.956, 2160.907 136.153, 2116.236 128.575 C 2096.412 125.212, 2053.326 123.460, 2028 124.986 M 1679 172.674 C 1625.993 174.629, 1608.202 180.811, 1598.924 200.500 C 1586.671 226.500, 1587.672 304.381, 1600.545 326.617 C 1604.149 332.842, 1613.143 340.536, 1619.673 342.979 C 1635.004 348.715, 1653.770 350.503, 1698.500 350.489 C 1755.237 350.471, 1775.332 347.031, 1788.250 335.124 C 1793.743 330.061, 1797.312 323.576, 1799.892 313.970 C 1803.670 299.906, 1804.500 290.545, 1804.500 262 C 1804.500 233.538, 1803.668 224.088, 1799.936 210.191 C 1797.214 200.052, 1794.033 194.240, 1788.242 188.823 C 1776.976 178.285, 1763.488 175.091, 1721.500 173.016 C 1702.519 172.078, 1696.477 172.029, 1679 172.674 M 2366.500 173.055 C 2336.743 174.358, 2319.904 177.039, 2309.899 182.065 C 2294.317 189.892, 2288.733 200.546, 2284.642 230.250 L 2284.126 234 2390.575 234 L 2497.024 234 2496.448 229.750 C 2495.002 219.086, 2491.582 205.016, 2489.217 200 C 2485.944 193.060, 2478.125 185.272, 2471 181.855 C 2464.850 178.906, 2454.715 176.514, 2442 175.011 C 2433.108 173.960, 2394.407 171.947, 2387.500 172.177 C 2385.300 172.250, 2375.850 172.645, 2366.500 173.055" stroke="none" fill="#eb141c" fill-rule="evenodd"/><path d="M 952 199.500 L 952 399 977 399 L 1002 399 1002 393 C 1002 389.700, 1002.147 387, 1002.326 387 C 1002.505 387, 1005.896 388.134, 1009.863 389.519 C 1020.883 393.370, 1035.052 396.692, 1050.500 399.049 C 1068.430 401.785, 1113.912 402.862, 1135.284 401.057 C 1196.701 395.871, 1235.832 376.837, 1251.557 344.500 C 1259.281 328.616, 1263.231 309.625, 1265.118 279.304 C 1267.540 240.376, 1262.016 199.922, 1251.372 178.635 C 1240.070 156.031, 1217.847 140.302, 1183.500 130.598 C 1133.965 116.602, 1048.257 118.738, 1007.009 134.996 L 1002 136.971 1002 68.485 L 1002 0 977 0 L 952 0 952 199.500 M 731.500 121.674 C 668.201 124.795, 624.268 143.062, 606.037 173.841 C 587.609 204.951, 583.464 282.250, 597.663 330 C 609.548 369.970, 644.825 392.211, 709 400.194 C 723.322 401.975, 782.835 401.963, 797 400.175 C 844.434 394.188, 877.025 379.708, 894.668 356.781 C 908.829 338.379, 916.001 306.560, 915.999 262.144 C 915.998 231.567, 913.102 209.283, 906.612 189.907 C 902.416 177.380, 898.251 170.456, 889.087 160.771 C 874.718 145.585, 855.672 135.748, 827.500 128.963 C 801.651 122.736, 765.548 119.995, 731.500 121.674 M 1300.667 123.667 C 1300.300 124.033, 1300 185.908, 1300 261.167 L 1300 398 1325.500 398 L 1351 398 1350.999 297.250 C 1350.998 241.838, 1350.700 179.963, 1350.336 159.750 L 1349.676 123 1325.504 123 C 1312.210 123, 1301.033 123.300, 1300.667 123.667 M 118.238 125.056 C 103.663 126.350, 88.552 129.608, 81.107 133.063 C 74.377 136.185, 63.814 143.301, 60.595 146.881 C 57.641 150.167, 57 149.475, 57 143 L 57 137 31.496 137 L 5.993 137 6.246 267.750 L 6.500 398.500 31.500 398.500 L 56.500 398.500 57 309 L 57.500 219.500 59.768 213.895 C 67.642 194.432, 84.926 182.280, 114.500 175.415 C 123.736 173.271, 175.227 172.236, 187.337 173.951 C 218.454 178.358, 240.172 190.563, 249.461 208.864 C 254.774 219.330, 254.461 213.647, 255 309.500 L 255.500 398.500 280.500 398.500 L 305.500 398.500 306 309 L 306.500 219.500 308.768 213.895 C 316.215 195.487, 331.772 183.657, 357.599 176.762 L 369.500 173.584 403 173.542 C 431.840 173.506, 437.654 173.754, 444.796 175.325 C 475.590 182.100, 494.285 195.629, 501.352 216.252 C 503.468 222.425, 503.497 223.554, 503.783 310.750 L 504.072 399 529.036 399 L 554 399 553.998 313.750 C 553.995 228.463, 553.401 208.752, 550.393 194.082 C 546.522 175.202, 536.372 158.559, 521.971 147.478 C 499.859 130.463, 469.122 124.052, 409.500 124.020 C 344.367 123.984, 313.638 132.358, 294.903 155.248 L 289.755 161.538 280.494 152.366 C 272.541 144.491, 269.767 142.470, 260.866 138.073 C 241.004 128.259, 218.022 125.039, 164 124.499 C 144.475 124.304, 123.882 124.555, 118.238 125.056 M 734 172.674 C 681.126 174.624, 662.966 180.908, 653.936 200.377 C 644.452 220.826, 642.311 275.205, 649.621 310 C 653.721 329.517, 664.101 340.723, 682.500 345.495 C 696.853 349.218, 713.306 350.390, 752 350.446 C 810.415 350.530, 830.165 347.185, 843.430 334.958 C 855.646 323.698, 860.790 298.145, 859.713 254.074 C 858.785 216.120, 854.569 199.419, 843.242 188.823 C 831.976 178.285, 818.488 175.091, 776.500 173.016 C 757.519 172.078, 751.477 172.029, 734 172.674 M 1076.905 172.991 C 1053.565 174.310, 1037.072 177.372, 1027.785 182.110 C 1021.633 185.248, 1014.122 192.811, 1011.027 198.984 C 1004.329 212.341, 1001.624 233.561, 1002.293 267.500 C 1002.800 293.201, 1004.101 304.719, 1007.863 316.807 C 1016.094 343.255, 1037.443 351, 1102.117 351 C 1138.555 351, 1166.970 348.084, 1180.500 342.957 C 1188.899 339.774, 1198.795 329.867, 1201.933 321.500 C 1209.122 302.332, 1211.751 262.117, 1207.913 230 C 1202.216 182.319, 1188.846 174.361, 1111.500 172.618 C 1100.500 172.370, 1084.932 172.538, 1076.905 172.991" stroke="none" fill="#0464b4" fill-rule="evenodd"/></svg>