<svg xmlns="http://www.w3.org/2000/svg" width="3037" height="599" viewBox="0 0 3037 599" version="1.1"><path d="" stroke="none" fill="#ec1c34" fill-rule="evenodd"/><path d="M 646.324 9.415 C 637.134 12.343, 628.733 20.004, 624.301 29.500 L 621.500 35.500 621.214 84.250 C 621.019 117.400, 621.259 133, 621.964 133 C 622.534 133, 623 132.052, 623 130.893 C 623 129.734, 624.405 125.841, 626.123 122.243 C 632.053 109.816, 645.459 99.396, 662.500 93.967 C 668.613 92.020, 672.542 91.656, 693.500 91.101 C 716.635 90.488, 717.698 90.371, 723 87.857 C 737.375 81.041, 745 67.776, 745 49.587 C 745 31.595, 738.409 19.295, 724.821 11.927 L 718.500 8.500 684.500 8.292 C 658.486 8.133, 649.519 8.397, 646.324 9.415 M 1475.730 30.394 C 1465.475 34.657, 1460.373 39.686, 1455.290 50.542 L 1452.500 56.500 1452.176 94.250 L 1451.852 132 1413.926 132 L 1376 132 1376 154.841 C 1376 180.108, 1376.553 183.512, 1382.055 192.085 C 1385.977 198.197, 1392.260 203.166, 1399.847 206.157 C 1404.984 208.182, 1407.617 208.422, 1428.689 208.786 L 1451.878 209.186 1452.282 330.843 C 1452.678 450.387, 1452.723 452.697, 1454.841 463.848 C 1460.211 492.115, 1470.139 511.248, 1488.660 529.025 C 1508.917 548.468, 1533.780 561.414, 1565.500 569.035 C 1591.958 575.393, 1614.249 577.255, 1665.500 577.393 L 1705.500 577.500 1711.493 575.087 C 1718.701 572.185, 1727.404 563.912, 1731.044 556.500 C 1733.423 551.656, 1733.510 550.715, 1733.811 526.369 L 1734.123 501.239 1701.811 500.713 C 1667.360 500.152, 1656.030 499.029, 1638.294 494.421 C 1599.973 484.465, 1581.462 463.065, 1577.066 423.637 C 1576.380 417.491, 1576 377.471, 1576 311.539 L 1576 209 1703.500 209 L 1831 209 1831.008 326.750 C 1831.016 444.030, 1831.255 453.634, 1834.552 469.596 C 1840.737 499.542, 1856.884 523.937, 1882.500 542.040 C 1910.385 561.746, 1942.523 571.911, 1990 576.041 C 2009.540 577.741, 2073.484 578.479, 2081.398 577.096 C 2092.717 575.117, 2100.526 570.297, 2106.348 561.696 C 2112.226 553.011, 2113 548.547, 2113 523.318 L 2113 501 2087.750 500.991 C 2050.732 500.979, 2031.251 498.903, 2011.500 492.868 C 1995.807 488.072, 1986.916 482.966, 1976.951 473.027 C 1964.867 460.974, 1959.669 450.239, 1956.522 430.835 C 1955.238 422.920, 1955.007 405.343, 1955.004 315.299 L 1955 209.097 2017.750 208.798 L 2080.500 208.499 2086.202 206.196 C 2092.920 203.482, 2101.016 196.535, 2104.613 190.398 C 2109.202 182.566, 2109.975 177.296, 2109.988 153.750 L 2110 132 2032.500 132 L 1955 132 1955 97.636 C 1955 78.573, 1954.548 60.890, 1953.985 57.921 C 1951.770 46.239, 1944.765 36.978, 1934.217 31.787 L 1927.540 28.500 1892.520 28.500 C 1858.577 28.500, 1857.354 28.568, 1852.749 30.694 C 1845.662 33.967, 1837.750 41.969, 1834.374 49.278 L 1831.500 55.500 1831.205 93.750 L 1830.911 132 1703.500 132 L 1576.088 132 1575.794 93.250 L 1575.500 54.500 1572.743 48.888 C 1569.451 42.188, 1560.881 33.756, 1554.251 30.694 C 1549.694 28.590, 1548.112 28.490, 1515.500 28.248 C 1481.614 27.997, 1481.481 28.004, 1475.730 30.394 M 2769.844 29.368 C 2756.685 34.160, 2747.842 43.972, 2745.123 56.799 C 2743.610 63.939, 2743.531 434.539, 2745.040 450.447 C 2749.738 499.992, 2772.005 531.918, 2817.935 554.968 C 2838.431 565.253, 2861.015 571.378, 2891.585 574.942 C 2914.547 577.619, 2985.233 579.042, 2995.789 577.040 C 3007.517 574.816, 3017.822 566.882, 3022.812 556.236 C 3025.469 550.566, 3025.504 550.215, 3025.813 525.750 L 3026.127 501 3000.985 501 C 2971.909 501, 2956.469 499.851, 2939.103 496.396 C 2916.045 491.808, 2902.314 485.274, 2889.937 473 C 2879.740 462.888, 2874.354 452.700, 2870.376 436 C 2868.705 428.983, 2868.555 416.489, 2868.045 242 L 2867.500 55.500 2864.820 49.782 C 2861.280 42.229, 2854.405 35.035, 2847.278 31.426 L 2841.500 28.500 2807.500 28.269 C 2781.221 28.090, 2772.670 28.340, 2769.844 29.368 M 1042.406 131.045 C 947.977 134.462, 885.674 156.260, 850.441 198.209 C 830.184 222.326, 819.860 250.633, 814.956 295.500 C 813.249 311.116, 812.560 380.603, 813.900 402 C 817.126 453.508, 827.022 487.051, 846.907 513.875 C 854.186 523.693, 870.279 538.772, 881.182 545.988 C 910.670 565.507, 943.710 574.479, 995.321 576.985 C 1024.017 578.377, 1293.914 578.315, 1301.566 576.913 C 1313.185 574.786, 1323.496 566.578, 1328.820 555.218 C 1331.459 549.586, 1331.505 549.134, 1331.828 525.283 L 1332.156 501.067 1179.328 500.704 C 1042.115 500.378, 1025.537 500.171, 1017.073 498.673 C 990.139 493.908, 971.490 484.802, 960.203 470.906 C 953.754 462.966, 948.242 450.991, 945.977 440 C 943.639 428.652, 941 404.819, 941 395.050 L 941 388.044 1112.750 387.734 C 1273.857 387.444, 1284.961 387.313, 1291.943 385.631 C 1322.569 378.250, 1341.086 359.566, 1347.570 329.500 C 1349.936 318.532, 1349.939 286.256, 1347.576 269.500 C 1340.910 222.222, 1322.067 191.166, 1285.714 167.537 C 1257.947 149.490, 1220.594 138.414, 1170.973 133.514 C 1140.784 130.532, 1085.762 129.476, 1042.406 131.045 M 2378.500 130.675 C 2287.167 132.754, 2225.196 151.117, 2187.326 187.321 C 2159.768 213.666, 2146.326 245.408, 2141.509 295.511 C 2139.348 317.995, 2138.518 368.007, 2139.875 394.018 C 2142.323 440.948, 2147.852 466.993, 2160.993 493.500 C 2181.995 535.863, 2222.933 563.408, 2279 572.900 C 2305.512 577.389, 2310.230 577.500, 2474.051 577.500 L 2629.602 577.500 2637.247 573.722 C 2645.887 569.452, 2650.821 564.492, 2654.875 556 C 2657.457 550.591, 2657.505 550.093, 2657.813 525.750 L 2658.127 501 2512.813 500.997 C 2418.162 500.994, 2363.491 500.623, 2356 499.931 C 2324.926 497.060, 2303.167 488.486, 2289.277 473.637 C 2279.053 462.708, 2274.222 451.901, 2271.109 433 C 2269.065 420.586, 2267.030 400.371, 2267.010 392.275 L 2267 388.049 2439.250 387.771 L 2611.500 387.494 2621.224 384.811 C 2646.679 377.789, 2664.214 361.786, 2671.424 339 C 2678.982 315.115, 2676.905 268.367, 2666.925 237.745 C 2660.365 217.620, 2650.412 201.360, 2635.529 186.459 C 2605.347 156.239, 2559.394 139.066, 2492.500 133.007 C 2467.763 130.766, 2418.636 129.761, 2378.500 130.675 M 10 132.577 C 10 133.354, 19.614 152.116, 64.278 238.500 C 80.772 270.400, 101.916 311.350, 111.264 329.500 C 125.944 358.001, 153.059 410.535, 182.493 467.500 C 187.040 476.300, 198.084 497.675, 207.035 515 C 225.583 550.898, 226.994 553.193, 235.784 561.758 C 243.369 569.148, 256.167 575.916, 268.500 579.058 C 281.150 582.280, 303.017 583.555, 322.756 582.220 C 350.321 580.355, 364.701 575.507, 377.529 563.752 C 386.301 555.714, 389.463 550.781, 403.972 522.500 C 410.744 509.300, 419.093 493.100, 422.525 486.500 C 425.957 479.900, 443.042 446.825, 460.491 413 C 477.941 379.175, 495.941 344.300, 500.493 335.500 C 505.045 326.700, 519.221 299.250, 531.996 274.500 C 544.771 249.750, 558.715 222.750, 562.982 214.500 C 597.464 147.838, 605 133.139, 605 132.548 C 605 132.177, 584.413 132.048, 559.250 132.262 C 509.334 132.687, 509.241 132.697, 495.399 138.973 C 479.643 146.117, 465.656 159.600, 457.270 175.727 C 454.475 181.102, 423.293 246.925, 387.978 322 C 352.663 397.075, 322.268 461.482, 320.434 465.126 C 316.410 473.122, 311.133 479, 307.977 479 C 304.575 479, 299.087 472.529, 294.339 462.921 C 292.050 458.289, 267.689 407.025, 240.204 349 C 212.718 290.975, 187.028 236.807, 183.115 228.627 C 179.202 220.447, 176 213.632, 176 213.483 C 176 211.912, 155.180 170.699, 152.175 166.322 C 144.450 155.069, 131.964 144.579, 119.651 138.996 C 105.753 132.694, 105.691 132.687, 55.750 132.262 C 30.587 132.048, 10 132.190, 10 132.577 M 647.929 133.367 C 637.666 136.135, 628.921 143.673, 624.135 153.880 L 621.500 159.500 621.240 352.459 C 621.005 526.415, 621.137 545.965, 622.571 550.959 C 626.547 564.801, 636.904 574.110, 651.532 576.988 C 655.583 577.785, 666.876 578.045, 686.508 577.793 C 714.207 577.438, 715.768 577.315, 721.500 575.048 C 729.694 571.807, 738.771 562.747, 742.088 554.500 L 744.500 548.500 744.500 354.500 L 744.500 160.500 742.203 155.500 C 736.926 144.011, 729.595 137.221, 718.864 133.881 C 713.488 132.207, 709.495 132.007, 682.661 132.067 C 662.101 132.114, 651.045 132.527, 647.929 133.367 M 1041 208.019 C 994.896 212.696, 962.947 229.964, 949.451 257.500 C 942.640 271.398, 941.025 283.805, 941.056 322 C 941.075 344.948, 941.257 348.098, 942.414 345.500 C 947.164 334.829, 961.528 324.033, 978.873 318.098 C 995.363 312.456, 990.292 312.707, 1101 312.055 C 1211.142 311.407, 1206.571 311.644, 1213.869 306.220 C 1219.368 302.134, 1221.483 296.155, 1221.375 285 C 1221.239 270.791, 1217.636 260.319, 1208.472 247.500 C 1193.764 226.925, 1169.236 214.822, 1131.136 209.341 C 1118.726 207.556, 1054.809 206.618, 1041 208.019 M 2366.500 208.070 C 2330.574 211.724, 2305.696 222.059, 2287.907 240.719 C 2270.856 258.605, 2267.008 274.477, 2267.002 326.946 L 2267 349.393 2269.566 344.243 C 2272.547 338.261, 2281.512 329.570, 2289.296 325.117 C 2295.915 321.330, 2305.692 317.591, 2316.422 314.744 C 2324.360 312.638, 2326.286 312.592, 2427.500 312.051 C 2529.177 311.507, 2530.558 311.473, 2535 309.417 C 2540.695 306.780, 2545.583 301.252, 2547.073 295.763 C 2550.004 284.960, 2546.326 265.970, 2538.821 253.165 C 2533.663 244.365, 2518.926 230.212, 2510 225.485 C 2494.292 217.168, 2478.770 212.379, 2458 209.439 C 2444.477 207.526, 2381.166 206.578, 2366.500 208.070" stroke="none" fill="#ec1c2c" fill-rule="evenodd"/></svg>