<svg xmlns="http://www.w3.org/2000/svg" width="800" height="240" viewBox="0 0 800 240" version="1.1"><path d="M 112 44.750 C 112 45.163, 117.175 45.500, 123.500 45.500 C 129.825 45.500, 135 45.163, 135 44.750 C 135 44.337, 129.825 44, 123.500 44 C 117.175 44, 112 44.337, 112 44.750 M 134.370 57 C 134.370 62.775, 134.535 65.138, 134.737 62.250 C 134.939 59.362, 134.939 54.638, 134.737 51.750 C 134.535 48.862, 134.370 51.225, 134.370 57 M 427.470 107 C 427.470 140.275, 427.596 153.888, 427.749 137.250 C 427.903 120.613, 427.903 93.388, 427.749 76.750 C 427.596 60.113, 427.470 73.725, 427.470 107 M 450.422 67 C 450.422 78.275, 450.568 82.888, 450.746 77.250 C 450.924 71.612, 450.924 62.388, 450.746 56.750 C 450.568 51.112, 450.422 55.725, 450.422 67 M 10.998 78.750 C 10.996 79.162, 14.484 79.378, 18.748 79.229 C 32.446 78.750, 33.796 78.341, 22.250 78.168 C 16.063 78.076, 10.999 78.338, 10.998 78.750 M 83 78.647 C 91.280 79.382, 101.779 79.441, 101.349 78.750 C 101.092 78.338, 96.071 78.076, 90.191 78.168 C 84.311 78.261, 81.075 78.476, 83 78.647 M 119.287 78.740 C 122.469 78.939, 127.419 78.937, 130.287 78.736 C 133.154 78.535, 130.550 78.372, 124.500 78.374 C 118.450 78.376, 116.104 78.541, 119.287 78.740 M 152.784 78.738 C 155.689 78.941, 160.189 78.939, 162.784 78.734 C 165.378 78.528, 163 78.363, 157.500 78.365 C 152 78.368, 149.878 78.536, 152.784 78.738 M 625.750 78.737 C 628.638 78.939, 633.362 78.939, 636.250 78.737 C 639.138 78.535, 636.775 78.370, 631 78.370 C 625.225 78.370, 622.862 78.535, 625.750 78.737 M 134.459 123.500 C 134.460 147.700, 134.590 157.457, 134.749 145.182 C 134.908 132.907, 134.908 113.107, 134.749 101.182 C 134.589 89.257, 134.459 99.300, 134.459 123.500 M 619.484 124 L 619.500 168.500 631.252 168.550 L 643.003 168.600 631.512 168.268 L 620.021 167.937 619.744 123.718 L 619.468 79.500 619.484 124 M 326.466 135 C 326.466 164.975, 326.594 177.237, 326.749 162.250 C 326.905 147.262, 326.905 122.737, 326.749 107.750 C 326.594 92.762, 326.466 105.025, 326.466 135 M 236.784 108.738 C 239.689 108.941, 244.189 108.939, 246.784 108.734 C 249.378 108.528, 247 108.363, 241.500 108.365 C 236 108.368, 233.878 108.536, 236.784 108.738 M 450 141.468 L 450 167.937 438.250 168.253 L 426.500 168.570 438.750 168.785 L 451 169 451 142 C 451 127.150, 450.775 115, 450.500 115 C 450.225 115, 450 126.911, 450 141.468 M 169.436 141.500 C 169.436 155.800, 169.577 161.511, 169.748 154.191 C 169.919 146.871, 169.918 135.171, 169.747 128.191 C 169.575 121.211, 169.435 127.200, 169.436 141.500 M 642.435 142 C 642.435 156.025, 642.575 161.763, 642.747 154.750 C 642.919 147.738, 642.919 136.263, 642.747 129.250 C 642.575 122.238, 642.435 127.975, 642.435 142 M 771.784 141.738 C 774.689 141.941, 779.189 141.939, 781.784 141.734 C 784.378 141.528, 782 141.363, 776.500 141.365 C 771 141.368, 768.878 141.536, 771.784 141.738 M 200.998 168.250 C 200.999 168.662, 206.287 168.924, 212.750 168.832 C 224.925 168.658, 223.534 168.236, 209.248 167.769 C 204.709 167.621, 200.996 167.838, 200.998 168.250 M 482.998 168.250 C 482.999 168.662, 488.288 168.924, 494.750 168.832 C 506.925 168.658, 505.534 168.236, 491.248 167.769 C 486.709 167.621, 482.996 167.838, 482.998 168.250 M 686.500 168 L 674.500 168.598 686.191 168.799 C 693.132 168.918, 698.133 168.594, 698.500 168 C 698.840 167.450, 698.979 167.091, 698.809 167.201 C 698.639 167.312, 693.100 167.671, 686.500 168 M 51.784 168.738 C 54.689 168.941, 59.189 168.939, 61.784 168.734 C 64.378 168.528, 62 168.363, 56.500 168.365 C 51 168.368, 48.878 168.536, 51.784 168.738 M 118.784 168.738 C 121.689 168.941, 126.189 168.939, 128.784 168.734 C 131.378 168.528, 129 168.363, 123.500 168.365 C 118 168.368, 115.878 168.536, 118.784 168.738 M 151.789 168.741 C 155.248 168.937, 160.648 168.936, 163.789 168.738 C 166.930 168.540, 164.100 168.380, 157.500 168.382 C 150.900 168.384, 148.330 168.546, 151.789 168.741" stroke="none" fill="#049ce4" fill-rule="evenodd"/><path d="M 427.500 106.112 L 427.500 168 438.750 168 L 450 168 450.118 141.250 C 450.184 126.537, 450.189 114.178, 450.130 113.785 C 450.071 113.391, 450.500 111.816, 451.082 110.285 C 451.664 108.753, 451.996 107.468, 451.820 107.429 C 451.644 107.389, 452.292 106.566, 453.259 105.598 C 454.227 104.630, 454.720 103.356, 454.355 102.765 C 453.977 102.154, 454.157 101.979, 454.773 102.360 C 455.369 102.728, 456.144 102.123, 456.495 101.015 C 457.057 99.245, 458.286 98.485, 459.346 99.250 C 459.537 99.388, 460.455 98.867, 461.387 98.094 C 463.154 96.627, 471.745 95.718, 473.493 96.813 C 474.047 97.160, 475.032 97.525, 475.681 97.623 C 478.844 98.104, 481.931 101.692, 482.541 105.596 C 482.893 107.848, 483.253 122.698, 483.340 138.596 L 483.500 167.500 495.300 168 L 507.100 168.500 506.941 134.250 C 506.854 115.412, 506.421 100, 505.980 100 C 505.538 100, 505.287 99.253, 505.421 98.340 C 505.801 95.748, 502.420 89.586, 499.440 87.442 C 497.955 86.374, 495.608 84.487, 494.224 83.250 C 491.976 81.240, 490.018 80.523, 487.750 80.882 C 487.337 80.947, 487 80.541, 487 79.981 C 487 79.393, 485.942 79.228, 484.500 79.589 C 483.097 79.942, 482 79.783, 482 79.229 C 482 78.685, 479.750 78.280, 477 78.328 C 474.250 78.375, 472 78.760, 472 79.182 C 472 79.605, 470.705 79.691, 469.121 79.374 C 467.466 79.043, 465.949 79.273, 465.552 79.916 C 465.172 80.530, 464.443 80.774, 463.931 80.457 C 463.419 80.141, 463 80.328, 463 80.874 C 463 81.685, 459.062 83.600, 458.275 83.171 C 458.151 83.103, 456.530 84.612, 454.674 86.524 C 452.817 88.436, 451.022 90, 450.685 90 C 450.349 90, 450.077 80.090, 450.082 67.978 C 450.086 55.865, 449.806 45.495, 449.458 44.932 C 449.080 44.320, 444.531 43.972, 438.163 44.066 L 427.500 44.224 427.500 106.112 M 112.443 46.287 C 112.157 47.033, 112.053 52.110, 112.212 57.571 L 112.500 67.500 123.500 67.781 L 134.500 68.061 134.322 56.781 L 134.143 45.500 123.553 45.216 C 115.365 44.996, 112.845 45.239, 112.443 46.287 M 22.750 78.784 C 12.825 79.046, 12 79.218, 12 81.034 C 12 82.115, 12.498 83, 13.107 83 C 13.716 83, 13.955 83.675, 13.638 84.500 C 13.322 85.325, 13.525 86, 14.090 86 C 14.656 86, 14.859 86.419, 14.543 86.931 C 14.226 87.443, 14.432 88.149, 15 88.500 C 15.568 88.851, 15.774 89.557, 15.457 90.069 C 15.141 90.581, 15.284 91, 15.774 91 C 16.265 91, 16.706 91.563, 16.753 92.250 C 16.942 94.990, 17.985 98.277, 19.085 99.602 C 19.723 100.371, 19.954 101, 19.599 101 C 19.244 101, 19.641 102.048, 20.480 103.330 C 21.320 104.611, 21.705 105.961, 21.337 106.330 C 20.968 106.698, 21.240 107, 21.940 107 C 22.641 107, 22.976 107.620, 22.685 108.378 C 22.394 109.136, 22.661 110.261, 23.278 110.878 C 23.895 111.495, 24.053 112, 23.629 112 C 23.204 112, 23.590 112.733, 24.486 113.629 C 25.382 114.525, 25.884 115.860, 25.601 116.597 C 25.319 117.333, 25.525 118.206, 26.060 118.537 C 26.595 118.868, 26.805 119.506, 26.527 119.956 C 26.249 120.405, 26.687 121.325, 27.500 122 C 28.313 122.675, 28.700 123.676, 28.361 124.225 C 28.021 124.774, 28.274 125.551, 28.922 125.952 C 29.570 126.352, 30.173 127.652, 30.263 128.840 C 30.352 130.028, 30.828 131, 31.320 131 C 31.812 131, 31.955 131.675, 31.638 132.500 C 31.322 133.325, 31.574 134, 32.198 134 C 32.822 134, 33.051 134.282, 32.707 134.627 C 32.362 134.972, 32.748 136.547, 33.566 138.127 C 34.383 139.707, 34.799 141, 34.490 141 C 34.182 141, 34.491 142.012, 35.177 143.250 C 35.863 144.488, 36.329 145.838, 36.212 146.250 C 36.096 146.662, 36.498 147, 37.107 147 C 37.716 147, 37.955 147.675, 37.638 148.500 C 37.322 149.325, 37.525 150, 38.090 150 C 38.656 150, 38.859 150.419, 38.543 150.931 C 38.226 151.443, 38.432 152.149, 39 152.500 C 39.568 152.851, 39.793 153.526, 39.500 154 C 39.207 154.474, 39.432 155.149, 40 155.500 C 40.568 155.851, 40.774 156.557, 40.457 157.069 C 40.141 157.581, 40.353 158, 40.929 158 C 41.505 158, 42.264 159.800, 42.616 162 C 42.968 164.200, 43.648 166, 44.128 166 C 44.608 166, 45 166.563, 45 167.250 C 45 168.178, 47.967 168.500, 56.500 168.500 C 62.825 168.500, 68.056 168.162, 68.125 167.750 C 68.280 166.819, 68.672 165.242, 68.993 164.250 C 69.127 163.838, 69.184 163.162, 69.118 162.750 C 69.053 162.338, 69.436 162, 69.969 162 C 70.501 162, 70.700 161.383, 70.411 160.629 C 70.122 159.875, 70.564 158.578, 71.395 157.748 C 72.225 156.918, 72.670 156.003, 72.383 155.716 C 72.096 155.430, 72.342 154.363, 72.930 153.347 C 74.327 150.934, 76.208 146.012, 76.678 143.543 C 76.883 142.467, 77.377 141.342, 77.775 141.043 C 78.174 140.745, 78.660 139.825, 78.855 139 C 79.050 138.175, 79.319 137.050, 79.451 136.500 C 79.584 135.950, 80.284 134.150, 81.008 132.500 C 81.731 130.850, 82.227 129.091, 82.109 128.592 C 81.991 128.092, 82.424 127.356, 83.072 126.955 C 83.720 126.555, 84.374 125.096, 84.526 123.713 C 84.962 119.744, 86.044 117, 87.174 117 C 87.746 117, 87.955 116.325, 87.638 115.500 C 87.322 114.675, 87.485 114, 88 114 C 88.515 114, 88.700 113.383, 88.411 112.629 C 88.122 111.875, 88.473 110.637, 89.192 109.879 C 89.912 109.121, 90.659 107.375, 90.853 106 C 91.047 104.625, 91.648 103.225, 92.188 102.888 C 92.729 102.552, 93.127 101.987, 93.074 101.633 C 93.021 101.280, 93.675 99.320, 94.528 97.279 C 95.381 95.238, 96.186 92.878, 96.318 92.034 C 96.450 91.190, 96.909 89.938, 97.338 89.250 C 97.767 88.563, 97.754 87.993, 97.309 87.985 C 96.864 87.976, 96.981 87.639, 97.569 87.235 C 98.157 86.831, 99.345 84.700, 100.209 82.500 L 101.781 78.500 89.890 78.500 C 79.816 78.500, 77.999 78.737, 77.999 80.050 C 78 80.902, 77.563 82.037, 77.029 82.571 C 76.494 83.106, 75.910 84.433, 75.730 85.521 C 75.550 86.610, 74.841 88.522, 74.155 89.771 C 73.469 91.020, 73.161 92.451, 73.470 92.952 C 73.779 93.452, 73.568 94.149, 73 94.500 C 72.432 94.851, 72.226 95.557, 72.543 96.069 C 72.859 96.581, 72.593 97, 71.952 97 C 71.311 97, 71.045 97.675, 71.362 98.500 C 71.678 99.325, 71.501 100, 70.969 100 C 70.436 100, 70.060 100.338, 70.134 100.750 C 70.461 102.585, 68.649 108, 67.708 108 C 67.135 108, 66.968 108.302, 67.337 108.670 C 67.705 109.039, 67.402 110.276, 66.662 111.420 C 65.266 113.578, 63.550 118.941, 63.836 120.250 C 63.926 120.662, 63.663 121, 63.250 121.001 C 62.838 121.001, 62.429 122.225, 62.342 123.720 C 62.255 125.215, 61.693 126.602, 61.092 126.803 C 60.491 127.003, 60 128.003, 60 129.024 C 60 130.046, 59.543 131.165, 58.984 131.510 C 58.425 131.856, 58.207 132.526, 58.500 133 C 58.793 133.474, 58.595 134.132, 58.060 134.463 C 57.525 134.794, 57.313 135.653, 57.589 136.372 C 57.865 137.091, 57.309 138.314, 56.354 139.090 C 55.398 139.865, 54.935 139.969, 55.324 139.319 C 55.714 138.670, 55.595 137.868, 55.060 137.537 C 54.525 137.206, 54.341 136.275, 54.651 135.468 C 54.960 134.661, 54.689 134, 54.048 134 C 53.407 134, 53.162 133.547, 53.505 132.992 C 53.847 132.438, 53.424 131.281, 52.564 130.421 C 51.704 129.561, 51 127.967, 51 126.879 C 51 125.791, 50.343 123.630, 49.540 122.077 C 48.737 120.524, 48.362 118.972, 48.707 118.627 C 49.051 118.282, 48.844 118, 48.246 118 C 47.331 118, 45.871 113.917, 45.839 111.267 C 45.834 110.845, 45.363 109.938, 44.793 109.250 C 44.222 108.563, 44.148 107.993, 44.628 107.985 C 45.107 107.976, 44.940 107.614, 44.255 107.179 C 43.570 106.744, 42.909 105.176, 42.787 103.694 C 42.664 102.212, 42.137 101, 41.615 101 C 41.094 101, 40.951 100.716, 41.298 100.369 C 41.645 100.021, 41.304 98.845, 40.540 97.754 C 39.776 96.663, 39.390 95.147, 39.682 94.385 C 39.975 93.623, 39.730 93, 39.138 93 C 38.547 93, 38.322 92.325, 38.638 91.500 C 38.955 90.675, 38.689 90, 38.048 90 C 37.407 90, 37.160 89.550, 37.500 89 C 37.840 88.450, 37.641 88, 37.059 88 C 36.477 88, 36.076 87.662, 36.168 87.250 C 36.461 85.944, 34.801 78.988, 34.137 78.739 C 33.786 78.608, 28.663 78.628, 22.750 78.784 M 112.490 79.881 C 112.200 80.640, 111.989 100.890, 112.021 124.881 L 112.079 168.500 123.289 168.500 L 134.500 168.500 134.500 123.808 L 134.500 79.116 123.759 78.808 C 115.331 78.566, 112.904 78.797, 112.490 79.881 M 145.999 123.191 L 146 167.882 157.750 168.191 L 169.500 168.500 169.500 138.899 C 169.500 114.543, 169.766 108.785, 171 106.399 C 173.068 102.402, 174.915 100.560, 179 98.423 C 182.654 96.512, 192 95.700, 192 97.295 C 192 97.800, 192.675 97.955, 193.500 97.638 C 194.325 97.322, 195 97.574, 195 98.198 C 195 98.822, 195.301 99.032, 195.669 98.664 C 196.567 97.766, 200.097 101.033, 199.417 102.134 C 199.123 102.610, 199.284 103, 199.774 103 C 200.928 103, 200.868 101.575, 201.208 137 L 201.500 167.500 213.279 168 L 225.058 168.500 224.963 133.750 C 224.910 114.637, 224.487 99, 224.022 99 C 223.557 99, 223.294 98.213, 223.437 97.250 C 223.761 95.069, 222.184 92.142, 219.250 89.479 C 218.012 88.356, 217 86.862, 217 86.159 C 217 85.457, 216.597 85.131, 216.105 85.435 C 215.612 85.740, 214.941 85.288, 214.612 84.431 C 214.283 83.574, 213.561 83.153, 213.007 83.496 C 212.453 83.838, 211.996 83.754, 211.992 83.309 C 211.981 82.186, 206.912 79.936, 205.860 80.587 C 205.387 80.879, 205 80.738, 205 80.273 C 205 79.809, 204.213 79.360, 203.250 79.276 C 202.287 79.192, 199.250 78.926, 196.500 78.683 C 193.750 78.441, 191.095 78.481, 190.600 78.773 C 190.105 79.065, 188.206 79.437, 186.379 79.601 C 184.552 79.765, 182.031 80.463, 180.778 81.152 C 179.525 81.840, 178.008 82.488, 177.407 82.590 C 176.154 82.804, 170.538 88.163, 170.515 89.167 C 170.507 89.533, 170.202 90.131, 169.839 90.495 C 169.475 90.858, 169.250 88.420, 169.339 85.077 C 169.427 81.733, 169.275 78.987, 169 78.975 C 168.725 78.962, 163.437 78.850, 157.249 78.726 L 145.998 78.500 145.999 123.191 M 263.406 78.927 C 263.103 79.230, 261.650 79.563, 260.178 79.666 C 258.705 79.769, 256.375 80.136, 255 80.481 C 253.625 80.826, 251.600 81.255, 250.500 81.436 C 246.094 82.159, 244.554 83.115, 238 89.190 C 233.576 93.291, 229.818 102.502, 230.939 106.500 C 231.453 108.333, 232.354 108.500, 241.751 108.500 C 250.848 108.500, 252.002 108.303, 252.001 106.750 C 252.001 105.787, 252.450 105, 253 105 C 253.550 105, 254 104.550, 254 104 C 254 103.450, 254.900 102.100, 256 101 C 257.100 99.900, 258.450 99, 259 99 C 259.550 99, 260 98.550, 260 98 C 260 97.450, 260.337 97.053, 260.750 97.118 C 261.163 97.184, 261.725 97.138, 262 97.017 C 263.868 96.195, 270.626 96.274, 271.657 97.130 C 272.347 97.703, 273.351 97.901, 273.887 97.570 C 275.084 96.830, 280.618 101.837, 280.197 103.279 C 280.031 103.850, 280.434 104.650, 281.093 105.057 C 281.843 105.521, 281.991 106.490, 281.487 107.649 C 281.044 108.667, 280.765 109.871, 280.866 110.324 C 280.967 110.778, 280.588 110.864, 280.025 110.515 C 279.461 110.167, 279 110.324, 279 110.863 C 279 111.977, 272.526 114.454, 269.500 114.498 C 268.400 114.514, 266.868 114.928, 266.095 115.418 C 265.072 116.067, 264.910 115.954, 265.500 115 C 266.089 114.047, 265.927 113.932, 264.905 114.578 C 263.614 115.393, 261.184 115.782, 255.250 116.121 C 254.012 116.192, 253 116.692, 253 117.232 C 253 117.772, 252.233 117.920, 251.295 117.560 C 250.358 117.200, 248.220 117.573, 246.545 118.389 C 243.613 119.817, 240.069 121.234, 238.976 121.414 C 237.587 121.642, 233.146 125.813, 233.701 126.367 C 234.049 126.715, 233.808 127, 233.167 127 C 232.525 127, 232 127.637, 232 128.417 C 232 129.196, 231.540 129.987, 230.978 130.174 C 230.416 130.361, 229.714 131.848, 229.419 133.476 C 229.123 135.105, 228.549 136.902, 228.142 137.469 C 227.212 138.765, 227.325 148.102, 228.289 149.660 C 228.683 150.298, 228.754 151.477, 228.446 152.281 C 228.137 153.085, 228.586 154.443, 229.442 155.300 C 230.299 156.156, 231 157.118, 231 157.438 C 231 157.757, 232.350 159.431, 234 161.157 C 235.650 162.884, 237 163.935, 237 163.493 C 237 163.052, 237.922 163.524, 239.048 164.543 C 240.174 165.563, 241.862 166.558, 242.798 166.756 C 247.902 167.832, 252.264 168.205, 259 168.140 C 269.585 168.039, 270 167.991, 270 166.879 C 270 166.331, 270.419 166.141, 270.931 166.457 C 271.443 166.774, 272.149 166.568, 272.500 166 C 272.851 165.432, 273.625 165.268, 274.221 165.636 C 274.816 166.004, 275.798 165.646, 276.402 164.841 C 278.285 162.329, 282.414 161.284, 282.644 163.261 C 282.724 163.943, 283.119 165.533, 283.523 166.795 C 284.234 169.018, 284.602 169.086, 295.177 168.929 L 306.097 168.766 305.941 138.910 C 305.822 116.150, 305.449 108.081, 304.374 104.960 C 303.599 102.709, 303.224 100.447, 303.541 99.934 C 303.858 99.420, 303.622 99, 303.015 99 C 302.409 99, 302.003 98.438, 302.114 97.750 C 302.437 95.748, 300.881 92.903, 297.934 90.102 C 294.226 86.579, 290.048 82.993, 289.747 83.074 C 289.611 83.111, 288.150 82.589, 286.500 81.914 C 284.850 81.239, 282.712 80.786, 281.750 80.907 C 280.788 81.027, 280 80.697, 280 80.173 C 280 79.649, 278.425 79.432, 276.500 79.691 C 274.290 79.989, 273 79.747, 273 79.036 C 273 77.903, 264.526 77.807, 263.406 78.927 M 326.991 79 C 326.730 109.004, 327.130 190.402, 327.542 191.067 C 328.180 192.101, 345.890 192.363, 348.459 191.377 C 349.873 190.835, 350.069 188.605, 349.980 174.127 C 349.898 160.870, 350.143 157.567, 351.189 157.831 C 351.910 158.013, 352.816 158.722, 353.203 159.408 C 353.589 160.093, 355.727 161.475, 357.953 162.479 C 360.179 163.482, 362 164.685, 362 165.152 C 362 165.618, 362.337 165.947, 362.750 165.882 C 363.163 165.816, 363.725 165.851, 364 165.958 C 364.275 166.065, 365.323 166.309, 366.328 166.499 C 367.334 166.690, 368.909 167.151, 369.828 167.523 C 372.269 168.512, 385 168.832, 385 167.904 C 385 167.470, 385.900 167.288, 387 167.500 C 388.100 167.712, 389 167.475, 389 166.974 C 389 166.473, 389.629 166.304, 390.399 166.600 C 391.168 166.895, 392.095 166.656, 392.458 166.068 C 392.821 165.481, 393.900 165, 394.856 165 C 395.811 165, 397.614 164.213, 398.863 163.250 C 402.909 160.130, 407.231 156, 406.451 156 C 406.032 156, 406.422 155.191, 407.316 154.203 C 409.703 151.566, 413.943 143.277, 413.257 142.590 C 412.932 142.266, 413.152 142, 413.745 142 C 414.338 142, 414.696 141.213, 414.541 140.250 C 414.386 139.287, 414.501 138.084, 414.796 137.577 C 416.147 135.252, 416.912 117, 415.659 117 C 415.153 117, 414.987 115.465, 415.292 113.589 C 415.596 111.713, 415.543 109.876, 415.173 109.506 C 414.803 109.136, 414.481 108.533, 414.457 108.167 C 414.314 105.923, 411.427 99.301, 409.859 97.618 C 408.836 96.521, 408 95.133, 408 94.534 C 408 93.403, 402.999 88.621, 401.522 88.340 C 401.059 88.251, 400.274 87.454, 399.778 86.569 C 399.283 85.683, 398.539 85.167, 398.126 85.422 C 397.713 85.677, 396.096 84.787, 394.532 83.443 C 391.375 80.730, 390.505 80.372, 391.633 82.250 C 392.204 83.201, 392.003 83.192, 390.794 82.212 C 389.156 80.885, 386.359 80.051, 382 79.588 C 380.625 79.443, 378.667 78.960, 377.649 78.516 C 376.501 78.015, 375.525 78.151, 375.077 78.875 C 374.681 79.517, 373.264 79.866, 371.928 79.650 C 370.593 79.435, 368.320 79.858, 366.877 80.590 C 365.434 81.321, 363.972 81.638, 363.627 81.293 C 363.282 80.949, 363 81.218, 363 81.892 C 363 82.566, 362.577 82.856, 362.060 82.537 C 361.542 82.217, 360.126 82.978, 358.913 84.228 C 357.699 85.478, 357.030 85.825, 357.427 85 C 358.057 83.689, 357.981 83.691, 356.824 85.014 C 355.578 86.438, 351.599 89.244, 349.596 90.109 C 349.099 90.324, 348.725 87.688, 348.765 84.250 L 348.837 78 337.918 78 C 331.312 78, 326.997 78.395, 326.991 79 M 550.250 78.808 C 549.013 78.990, 548 79.584, 548 80.129 C 548 80.673, 547.637 80.894, 547.193 80.619 C 546.749 80.345, 544.483 81.202, 542.157 82.523 C 539.832 83.844, 538.239 84.379, 538.618 83.712 C 539.400 82.337, 537.672 83.815, 530.458 90.693 C 527.685 93.337, 524.798 97.075, 524.043 99 C 523.288 100.925, 522.069 103.212, 521.333 104.081 C 520.598 104.951, 520.321 105.988, 520.719 106.386 C 521.117 106.783, 520.801 107.505, 520.018 107.989 C 517.941 109.273, 518.146 135.191, 520.260 138.612 C 520.610 139.178, 521.124 140.901, 521.404 142.443 C 521.683 143.984, 522.608 146.014, 523.458 146.954 C 524.309 147.893, 524.714 148.953, 524.359 149.308 C 524.004 149.663, 524.453 150.237, 525.357 150.583 C 526.261 150.930, 527.003 151.728, 527.008 152.357 C 527.018 153.960, 535.523 162.144, 536.334 161.332 C 536.700 160.966, 537 161.218, 537 161.892 C 537 162.566, 537.403 162.869, 537.895 162.565 C 538.388 162.260, 539.073 162.748, 539.419 163.649 C 539.764 164.549, 540.338 164.995, 540.694 164.640 C 541.049 164.284, 542.389 164.680, 543.670 165.520 C 544.952 166.359, 546 166.756, 546 166.401 C 546 166.046, 546.602 166.254, 547.337 166.865 C 548.925 168.182, 574 169.279, 574 168.031 C 574 167.561, 574.788 167.298, 575.750 167.447 C 576.712 167.595, 577.751 167.332, 578.057 166.861 C 578.364 166.391, 580.021 165.842, 581.740 165.642 C 583.458 165.442, 585.602 164.541, 586.504 163.639 C 587.405 162.738, 588.563 162, 589.076 162 C 589.590 162, 592.213 159.750, 594.906 157 C 597.598 154.250, 599.568 152, 599.282 152 C 598.996 152, 599.964 150.425, 601.432 148.500 C 602.900 146.575, 603.741 144.993, 603.301 144.985 C 602.860 144.976, 603.051 144.619, 603.725 144.191 C 604.398 143.763, 605.152 142.308, 605.400 140.957 C 605.648 139.605, 605.919 138.500, 606.002 138.500 C 606.557 138.500, 607.059 133.065, 607.321 124.250 C 607.488 118.612, 607.233 114, 606.753 114 C 606.274 114, 606.164 113.544, 606.508 112.987 C 607.345 111.633, 604.208 101, 602.972 101 C 602.437 101, 602 100.357, 602 99.571 C 602 98.786, 601.293 97.436, 600.429 96.571 C 599.564 95.707, 599.083 95, 599.360 95 C 600.116 95, 591.253 85.906, 590.313 85.716 C 589.866 85.626, 588.825 84.974, 588 84.268 C 587.175 83.562, 586.100 83.026, 585.612 83.077 C 585.123 83.129, 584.408 82.660, 584.022 82.035 C 583.636 81.411, 582.236 80.831, 580.910 80.748 C 579.585 80.664, 578.220 80.191, 577.878 79.696 C 577.283 78.836, 554.939 78.117, 550.250 78.808 M 619.990 78.500 C 619.984 78.500, 619.871 98.750, 619.740 123.500 L 619.500 168.500 631 168.194 L 642.500 167.889 642.351 139.219 C 642.232 116.094, 642.473 110.162, 643.601 108.552 C 644.371 107.454, 645 105.855, 645 105 C 645 103.647, 649.390 98.957, 651.318 98.250 C 655.751 96.625, 666 95.956, 666 97.292 C 666 97.746, 666.414 97.862, 666.919 97.550 C 667.425 97.237, 668.550 97.693, 669.419 98.562 C 670.289 99.432, 671 99.791, 671 99.360 C 671 98.929, 671.900 100.343, 673 102.500 C 674.100 104.658, 674.745 107.228, 674.433 108.212 C 674.121 109.195, 674.233 110, 674.683 109.999 C 675.132 109.999, 675.362 123.022, 675.194 138.940 L 674.888 167.881 686.916 168.190 L 698.943 168.500 698.946 135.750 C 698.947 117.737, 698.599 103, 698.172 103 C 697.745 103, 697.352 101.438, 697.298 99.530 C 697.157 94.551, 690.826 84.885, 687.374 84.379 C 686.522 84.254, 685.076 83.474, 684.160 82.645 C 683.245 81.817, 681.349 80.703, 679.947 80.170 C 676.097 78.706, 664.161 77.930, 663.441 79.096 C 663.101 79.646, 662.075 80.001, 661.161 79.885 C 658.310 79.523, 652 81.171, 652 82.278 C 652 82.858, 651.736 83.070, 651.414 82.748 C 650.892 82.226, 648.082 84.237, 644.474 87.714 C 643.477 88.675, 643.091 88.466, 642.621 86.714 C 642.294 85.496, 642.021 83.150, 642.014 81.500 L 642 78.500 631 78.500 C 624.950 78.500, 619.995 78.500, 619.990 78.500 M 741.291 79.076 C 740.584 79.754, 735.576 80.946, 732.250 81.227 C 731.563 81.286, 731 81.735, 731 82.226 C 731 82.716, 730.550 82.840, 730 82.500 C 729.450 82.160, 729 82.262, 729 82.725 C 729 83.189, 727.538 84.407, 725.750 85.432 C 720.514 88.434, 714.991 95.059, 714.021 99.500 C 713.901 100.050, 713.302 101.400, 712.689 102.500 C 712.076 103.600, 711.671 104.838, 711.788 105.250 C 711.904 105.662, 711.646 106, 711.214 106 C 709.486 106, 708.986 132.026, 710.603 137.750 C 711.264 140.088, 711.568 142, 711.280 142 C 710.991 142, 711.315 142.675, 712 143.500 C 712.685 144.325, 712.895 145, 712.467 145 C 712.040 145, 712.436 145.824, 713.347 146.831 C 714.259 147.838, 714.703 148.963, 714.336 149.331 C 713.968 149.699, 714.218 150, 714.892 150 C 715.566 150, 715.840 150.450, 715.500 151 C 715.160 151.550, 715.359 152, 715.941 152 C 716.523 152, 717 152.465, 717 153.033 C 717 153.991, 722.033 159.193, 725.191 161.500 C 728.201 163.698, 733 166.069, 733 165.357 C 733 164.940, 733.505 165.105, 734.122 165.722 C 734.739 166.339, 735.864 166.606, 736.622 166.315 C 737.380 166.024, 738 166.256, 738 166.831 C 738 167.975, 737.855 167.956, 749.823 168.319 C 754.401 168.458, 758.353 168.238, 758.605 167.829 C 758.858 167.421, 759.679 167.323, 760.431 167.612 C 761.183 167.900, 762.099 167.648, 762.468 167.052 C 762.837 166.455, 763.557 166.226, 764.069 166.543 C 764.581 166.859, 765 166.641, 765 166.059 C 765 165.477, 765.337 165.098, 765.750 165.218 C 767.187 165.635, 773 163.096, 773 162.052 C 773 161.473, 773.465 161, 774.034 161 C 775.346 161, 781.551 154.753, 781.236 153.750 C 781.106 153.338, 781.379 153, 781.843 153 C 782.676 153, 786.676 145.711, 787.219 143.203 C 787.436 142.202, 785.040 141.908, 776.750 141.914 C 770.837 141.919, 765.550 141.940, 765 141.962 C 764.450 141.983, 764 142.450, 764 143 C 764 143.550, 763.100 144.900, 762 146 C 760.900 147.100, 759.550 148, 759 148 C 758.450 148, 758 148.375, 758 148.833 C 758 149.292, 757.438 149.750, 756.750 149.853 C 753.879 150.280, 745.353 150.169, 743.500 149.681 C 742.400 149.390, 741.136 149.119, 740.691 149.077 C 740.246 149.034, 740.160 148.550, 740.500 148 C 740.840 147.450, 740.522 147, 739.793 147 C 737.661 147, 731.613 136.897, 731.412 133 L 731.232 129.500 758.770 129.796 C 776.932 129.991, 786.663 129.737, 787.350 129.050 C 788.634 127.766, 789.085 116, 787.851 116 C 787.361 116, 787.180 114.791, 787.448 113.313 C 787.716 111.836, 787.579 110.148, 787.145 109.563 C 786.710 108.979, 786.297 107.415, 786.227 106.090 C 786.157 104.764, 785.673 103.414, 785.150 103.090 C 784.627 102.765, 784.042 101.600, 783.850 100.500 C 783.657 99.400, 782.938 97.905, 782.250 97.179 C 781.563 96.452, 781 95.277, 781 94.568 C 781 91.777, 769.948 82.260, 765.773 81.456 C 764.604 81.231, 763.221 80.621, 762.702 80.102 C 762.182 79.582, 761.136 79.394, 760.378 79.685 C 759.620 79.976, 758.212 79.885, 757.250 79.483 C 754.822 78.470, 742.258 78.149, 741.291 79.076 M 746.750 97.105 C 745.788 97.652, 745 97.821, 745 97.482 C 745 97.142, 743.569 97.883, 741.819 99.129 C 740.070 100.374, 739.015 100.785, 739.474 100.042 C 740.035 99.135, 739.930 98.925, 739.155 99.405 C 738.520 99.797, 738 100.793, 738 101.618 C 738 102.443, 737.550 102.840, 737 102.500 C 736.450 102.160, 736 102.546, 736 103.358 C 736 104.169, 735.531 104.990, 734.957 105.181 C 734.383 105.372, 733.711 106.872, 733.462 108.514 C 733.214 110.156, 732.896 112.175, 732.755 113 C 732.615 113.825, 732.837 114.612, 733.250 114.750 C 733.663 114.888, 741.118 115, 749.818 115 L 765.636 115 765.636 112 C 765.636 110.350, 765.242 109, 764.759 109 C 764.277 109, 764.160 108.550, 764.500 108 C 764.840 107.450, 764.641 107, 764.059 107 C 763.477 107, 763 106.305, 763 105.455 C 763 104.018, 758.694 98.926, 757.523 98.977 C 755.402 99.069, 754.946 98.896, 755.397 98.167 C 755.680 97.708, 755.361 97.333, 754.688 97.333 C 754.015 97.333, 752.347 97.058, 750.982 96.722 C 749.617 96.386, 747.712 96.559, 746.750 97.105 M 558.500 97.802 C 554.284 98.226, 549.765 100.489, 548 103.060 C 547.175 104.262, 545.905 105.865, 545.179 106.623 C 544.452 107.380, 544.227 108.007, 544.679 108.015 C 545.130 108.024, 544.945 108.383, 544.266 108.814 C 543.587 109.245, 542.744 111.601, 542.393 114.049 C 541.338 121.387, 541.736 135, 543.005 135 C 543.318 135, 543.648 135.972, 543.737 137.160 C 543.827 138.348, 544.485 139.691, 545.200 140.145 C 545.915 140.598, 546.094 140.976, 545.597 140.985 C 545.100 140.993, 545.775 141.927, 547.097 143.061 C 548.419 144.194, 550.513 145.991, 551.750 147.054 C 552.987 148.117, 554 148.710, 554 148.371 C 554 148.032, 554.563 148.170, 555.250 148.677 C 556.758 149.789, 567.320 149.685, 571.500 148.518 C 573.150 148.057, 575.221 146.860, 576.102 145.858 C 576.982 144.856, 577.954 144.287, 578.260 144.594 C 578.567 144.900, 579.143 144.125, 579.541 142.872 C 579.938 141.619, 580.905 139.952, 581.689 139.168 C 582.474 138.384, 582.878 137.125, 582.589 136.371 C 582.300 135.617, 582.440 135, 582.900 135 C 583.361 135, 583.578 133.627, 583.382 131.949 C 583.187 130.272, 583.359 129.104, 583.764 129.354 C 585.338 130.327, 583.719 111.572, 582.056 109.568 C 581.485 108.879, 581.313 108.020, 581.675 107.658 C 582.037 107.296, 581.733 107, 581 107 C 580.267 107, 579.934 106.733, 580.261 106.406 C 580.588 106.079, 579.200 104.392, 577.178 102.656 C 575.155 100.920, 573.358 99.188, 573.185 98.806 C 573.012 98.425, 572.225 98.360, 571.435 98.663 C 570.646 98.966, 570 98.731, 570 98.140 C 570 97.137, 566.216 97.026, 558.500 97.802 M 366 99.076 C 366 99.584, 365.663 99.914, 365.250 99.810 C 362.463 99.102, 358.112 101.611, 355 105.723 C 353.075 108.266, 351.461 110.606, 351.414 110.924 C 351.366 111.241, 351.006 112.220, 350.614 113.101 C 350.222 113.981, 349.976 115.106, 350.069 115.601 C 350.161 116.095, 350.120 116.725, 349.977 117 C 349.310 118.283, 349.376 132, 350.049 132 C 350.469 132, 350.577 132.900, 350.290 134 C 349.986 135.162, 350.259 136, 350.942 136 C 351.589 136, 351.840 136.450, 351.500 137 C 351.160 137.550, 351.359 138, 351.941 138 C 352.523 138, 353 138.658, 353 139.463 C 353 141.039, 360.722 148.925, 362.451 149.115 C 363.028 149.178, 364.288 149.150, 365.250 149.052 C 366.212 148.954, 367 149.353, 367 149.937 C 367 151.114, 372.257 151.410, 373.371 150.296 C 373.759 149.908, 375.296 149.435, 376.788 149.244 C 379.565 148.889, 388.195 141.128, 387.345 139.750 C 387.090 139.338, 387.306 139, 387.824 139 C 388.711 139, 389.900 136.380, 390.549 133 C 391.330 128.929, 391.798 117.999, 391.191 117.996 C 390.811 117.993, 390.412 116.314, 390.305 114.264 C 390.198 112.214, 389.632 110.377, 389.049 110.183 C 388.465 109.988, 388.242 109.418, 388.553 108.915 C 388.864 108.412, 388.641 108, 388.059 108 C 387.477 108, 387 107.425, 387 106.723 C 387 106.020, 385.604 104.220, 383.897 102.723 C 380.988 100.170, 379.253 99.535, 376.250 99.925 C 375.563 100.015, 375 99.730, 375 99.294 C 375 98.857, 372.975 98.422, 370.500 98.326 C 368.025 98.231, 366 98.568, 366 99.076 M 279.531 125.950 C 279.163 126.545, 278.479 126.796, 278.012 126.507 C 277.544 126.218, 276.429 126.714, 275.535 127.608 C 274.556 128.587, 272.335 129.213, 269.954 129.180 C 267.779 129.150, 266 129.517, 266 129.996 C 266 130.475, 264.720 130.830, 263.154 130.785 C 261.589 130.741, 258.785 131.558, 256.923 132.602 C 253.303 134.631, 250.409 137, 251.551 137 C 251.933 137, 251.794 137.563, 251.243 138.250 C 250.249 139.491, 250.053 148.469, 251.004 149.247 C 251.277 149.470, 253.075 150.581, 255 151.715 C 258.233 153.621, 260.175 153.784, 265.500 152.598 C 266.600 152.353, 268.030 152.119, 268.679 152.077 C 269.327 152.034, 270.452 151.405, 271.179 150.679 C 271.905 149.952, 272.836 149.275, 273.247 149.175 C 274.858 148.781, 279 144.566, 279 143.320 C 279 142.594, 279.498 142, 280.107 142 C 280.716 142, 280.960 141.339, 280.651 140.532 C 280.341 139.725, 280.474 138.825, 280.946 138.533 C 281.898 137.945, 281.781 126.447, 280.812 125.479 C 280.476 125.142, 279.899 125.354, 279.531 125.950" stroke="none" fill="#04a4e4" fill-rule="evenodd"/></svg>