<svg xmlns="http://www.w3.org/2000/svg" width="250" height="130" viewBox="0 0 250 130" version="1.1"><path d="M 88.572 4.427 C 86.412 5.230, 83.322 6.865, 81.704 8.061 L 78.763 10.235 74.632 7.868 C 70.670 5.597, 69.555 5.487, 47.500 5.174 C 22.058 4.813, 19.048 5.263, 13.326 10.287 C 8.595 14.441, 6.049 20.190, 6.022 26.782 C 5.985 35.725, 9.802 42.298, 17.250 46.118 C 19.312 47.175, 21 48.371, 21 48.774 C 21 49.177, 18.247 53.330, 14.883 58.003 C 6.738 69.317, 5.047 73.180, 5.031 80.500 C 5.014 88.963, 8.816 95.475, 16.148 99.535 L 21.500 102.500 46.500 102.500 C 70.501 102.500, 71.668 102.410, 75.703 100.253 L 79.907 98.007 84.602 100.503 C 91.163 103.992, 99.864 103.977, 106.465 100.467 L 111.228 97.935 116.310 100.467 C 123.187 103.894, 130.851 103.916, 137.541 100.529 L 142.421 98.059 147.741 100.662 C 152.368 102.926, 153.961 103.200, 159.976 102.770 C 167.406 102.238, 168 102.597, 168 107.622 C 168 113.907, 175.728 122.998, 182.723 124.940 C 187.438 126.249, 204.571 126.304, 212.321 125.035 C 224.966 122.964, 234.797 116.194, 239.962 106 C 244.367 97.308, 245 92.047, 245 64.130 L 245 38.359 242.250 32.930 C 239.301 27.109, 235.036 23.590, 229.099 22.080 C 227.120 21.577, 218.300 21.240, 209.500 21.333 C 194.244 21.492, 193.240 21.628, 187.907 24.247 C 184.830 25.758, 180.631 28.628, 178.575 30.625 L 174.836 34.256 170.668 30.232 C 168.376 28.020, 164.475 25.150, 162 23.855 C 157.722 21.616, 156.538 21.500, 138 21.500 L 118.500 21.500 115.500 15.500 C 113.207 10.913, 111.414 8.839, 107.889 6.692 C 102.225 3.243, 94.272 2.310, 88.572 4.427 M 8.872 8.750 C 7.629 10.336, 7.664 10.371, 9.250 9.128 C 10.213 8.373, 11 7.585, 11 7.378 C 11 6.555, 10.179 7.084, 8.872 8.750 M 88.421 9.896 C 84.748 11.565, 80.690 15.431, 79.796 18.113 C 79.610 18.670, 77.558 17.319, 75.236 15.110 C 72.846 12.836, 69.601 10.830, 67.757 10.486 C 65.966 10.152, 54.744 10.018, 42.820 10.189 C 22.753 10.477, 20.936 10.653, 18.382 12.562 C 12.263 17.136, 9.514 23.913, 11.039 30.673 C 12.648 37.805, 18.220 42.591, 26.360 43.830 L 30.761 44.500 21.762 57 C 16.812 63.875, 12.103 71.038, 11.298 72.917 C 8.327 79.850, 9.874 87.759, 15.169 92.702 C 20.259 97.455, 23.481 98, 46.500 98 C 69.802 98, 72.814 97.466, 78.104 92.400 L 80.708 89.906 82.279 92.303 C 87.388 100.101, 103.458 99.783, 109.162 91.772 L 111.285 88.791 113.731 91.915 C 117.124 96.251, 121 98.001, 127.200 97.996 C 132.960 97.992, 137.486 95.883, 140.603 91.752 L 142.419 89.344 144.828 92.208 C 148.266 96.293, 152.147 98, 158 98 C 166.017 98, 171.901 93.882, 174.441 86.494 L 175.712 82.798 177.866 86.283 L 180.019 89.768 177.136 92.855 C 171.156 99.256, 171.160 108.696, 177.147 115.515 C 181.448 120.413, 185.498 121.309, 201.121 120.821 C 213.117 120.446, 215.133 120.115, 220.626 117.620 C 228.194 114.183, 233.048 109.315, 236.698 101.500 L 239.500 95.500 239.765 67 C 240.025 38.975, 239.991 38.433, 237.761 34.500 C 234.465 28.689, 228.222 25.689, 221 26.445 C 213.471 27.233, 214.026 27.254, 209 25.992 C 203.667 24.653, 197.207 25.420, 191 28.129 C 185.765 30.414, 177.656 38.003, 175.887 42.272 L 174.662 45.231 172.722 41.365 C 167.959 31.872, 158.176 25.709, 148.031 25.812 C 125.096 26.043, 123.400 26.172, 119.279 27.995 C 116.791 29.095, 114.221 31.228, 113.030 33.182 C 110.632 37.116, 110.467 36.115, 112.534 30.179 C 115.164 22.628, 111.298 13.775, 103.782 10.137 C 98.390 7.526, 93.798 7.455, 88.421 9.896 M 88.933 15.266 C 86.993 16.574, 84.948 19.167, 84.099 21.400 C 82.777 24.874, 82.799 25.755, 84.313 30.020 C 85.827 34.281, 85.847 35.065, 84.506 37.635 C 82.360 41.752, 82.312 82.768, 84.449 86.901 C 86.543 90.951, 90.255 93, 95.500 93 C 100.745 93, 104.457 90.951, 106.551 86.901 C 108.702 82.742, 108.639 41.750, 106.476 37.602 C 105.117 34.996, 105.126 34.456, 106.566 32.260 C 108.595 29.162, 108.635 21.745, 106.638 18.894 C 102.441 12.901, 94.774 11.330, 88.933 15.266 M 20.167 17.513 C 16.180 20.868, 14.698 25.948, 16.306 30.745 C 18.113 36.138, 21.744 38.274, 30.226 38.935 C 35.917 39.378, 37.548 39.859, 37.797 41.167 C 37.972 42.083, 33.439 49.283, 27.726 57.167 C 15.096 74.591, 15 74.766, 15 80.358 C 15 85.902, 18.437 90.458, 23.824 92.052 C 26.133 92.736, 35.374 93.021, 48.680 92.820 C 68.387 92.522, 70.056 92.353, 72.679 90.393 C 79.269 85.467, 79.278 74.970, 72.696 70.956 C 70.268 69.475, 67.668 69.007, 61.872 69.004 C 56.418 69.001, 53.901 68.585, 53.036 67.544 C 51.580 65.789, 50.962 66.848, 63.856 49.018 C 69.616 41.054, 74.765 33.118, 75.297 31.383 C 76.711 26.775, 75.407 21.764, 71.924 18.425 L 68.873 15.500 46.074 15.199 L 23.275 14.897 20.167 17.513 M 91.707 20.016 C 87.991 22.939, 87.957 28.034, 91.635 30.927 C 93.084 32.067, 95.048 33, 96 33 C 99.067 33, 103 29.088, 103 26.038 C 103 19.843, 96.400 16.324, 91.707 20.016 M 23.635 22.073 C 20.500 24.538, 20.121 28.895, 22.829 31.345 C 24.336 32.709, 26.976 33, 37.829 33 C 45.073 33, 51 33.233, 51 33.518 C 51 33.802, 44.025 43.759, 35.500 55.644 C 19.101 78.505, 17.968 80.968, 22 85 C 23.881 86.881, 25.333 87, 46.345 87 C 66.723 87, 68.836 86.839, 70.345 85.171 C 72.772 82.490, 72.474 77.446, 69.777 75.557 C 68.018 74.325, 64.584 74, 53.304 74 L 39.054 74 50.843 57.750 C 68.846 32.935, 70.002 31.118, 69.985 27.638 C 69.951 20.660, 67.810 20, 45.201 20 C 27.563 20, 26.090 20.142, 23.635 22.073 M 172.750 27.009 L 175 29.444 177.250 27.009 L 179.500 24.574 177.250 26.442 C 175.053 28.266, 174.947 28.266, 172.750 26.442 L 170.500 24.574 172.750 27.009 M 138.886 31.336 C 136.349 32.043, 133.424 32.288, 132.386 31.881 C 129.210 30.634, 124.053 30.921, 120.967 32.517 C 115.475 35.357, 114.594 38.646, 114.176 57.863 C 113.671 81.052, 114.271 85.471, 118.497 89.697 C 121.347 92.547, 122.480 93, 126.765 93 C 130.344 93, 132.500 92.395, 134.486 90.832 C 139.093 87.209, 140 83.475, 140 68.139 C 140 54.089, 140.398 52.561, 143.750 53.731 C 144.664 54.050, 145.001 57.703, 145.006 67.333 C 145.009 74.575, 145.472 82.159, 146.035 84.186 C 149.355 96.141, 166.762 96.026, 169.993 84.027 C 171.271 79.280, 170.634 48.519, 169.182 44.861 C 167.622 40.932, 162.172 35.129, 158.084 33.043 C 153.147 30.524, 144.544 29.759, 138.886 31.336 M 199.500 30.681 C 190.391 32.727, 183.549 38.053, 179.233 46.460 C 177.217 50.386, 176.549 53.400, 176.208 60.098 C 175.678 70.509, 177.490 77.699, 182.224 83.963 C 187.772 91.305, 187.690 91.096, 185.530 92.353 C 181.879 94.479, 178.268 98.908, 177.645 102.026 C 176.847 106.013, 178.945 111.022, 182.629 113.931 C 185.366 116.093, 186.154 116.180, 199.500 115.803 C 211.338 115.469, 214.272 115.060, 218.500 113.153 C 225.007 110.218, 229.315 105.957, 232.184 99.618 C 234.394 94.735, 234.514 93.251, 234.808 67.313 C 235.072 44.109, 234.886 39.680, 233.541 37.080 C 230.855 31.885, 223.810 29.601, 217.672 31.934 C 215.982 32.577, 213.728 32.421, 210.448 31.434 C 205.687 30.001, 203.268 29.835, 199.500 30.681 M 79 35.164 C 79 35.804, 74.526 42.554, 69.057 50.164 L 59.115 64 64.597 64 C 68.125 64, 71.492 64.720, 74.040 66.020 L 78 68.041 78 53.971 C 78 43.315, 78.370 39.185, 79.526 36.950 C 80.400 35.259, 80.614 34, 80.026 34 C 79.462 34, 79 34.524, 79 35.164 M 90.861 37.912 C 88.509 39.816, 88.500 39.910, 88.500 61.807 C 88.500 82.021, 88.653 83.959, 90.405 85.895 C 91.583 87.197, 93.527 88, 95.500 88 C 97.473 88, 99.417 87.197, 100.595 85.895 C 102.347 83.959, 102.500 82.021, 102.500 61.807 C 102.500 39.910, 102.491 39.816, 100.139 37.912 C 98.841 36.860, 96.753 36, 95.500 36 C 94.247 36, 92.159 36.860, 90.861 37.912 M 122.566 38.343 L 120 40.909 120 62.280 C 120 83.326, 120.035 83.684, 122.314 85.826 C 125.207 88.543, 129.382 88.618, 132 86 C 133.809 84.191, 134 82.667, 134 70.065 C 134 52.221, 135.524 48.111, 142.168 48.032 C 149.740 47.942, 151 50.998, 151 69.450 C 151 82.667, 151.183 84.183, 153 86 C 155.571 88.571, 160.429 88.571, 163 86 C 164.851 84.149, 164.999 82.679, 164.984 66.250 C 164.968 49.747, 164.810 48.219, 162.729 44.500 C 159.405 38.558, 153.395 35.777, 144.823 36.216 C 140.031 36.461, 137.557 37.091, 136.058 38.448 C 134.127 40.195, 133.874 40.213, 132.734 38.683 C 132.055 37.772, 130.067 36.746, 128.316 36.402 C 125.741 35.896, 124.642 36.267, 122.566 38.343 M 194.204 38.073 C 186.815 41.826, 182.161 49.694, 181.307 59.877 C 179.745 78.507, 192.163 91.954, 207.235 87.953 C 209.581 87.331, 212.564 85.849, 213.864 84.661 L 216.228 82.500 215.498 87 C 215.096 89.475, 214.334 92.326, 213.803 93.335 C 212.103 96.569, 206.699 98, 196.187 98 C 187.888 98, 186.046 98.292, 184.655 99.829 C 182.622 102.075, 182.520 105.965, 184.427 108.559 C 185.720 110.318, 187.081 110.491, 198.932 110.406 C 211.290 110.317, 212.325 110.152, 217.755 107.406 C 222.790 104.859, 223.871 103.759, 226.500 98.500 L 229.500 92.500 229.811 66.766 L 230.123 41.032 227.495 38.404 C 225.365 36.274, 224.265 35.893, 221.684 36.391 C 219.933 36.729, 217.872 37.921, 217.104 39.040 L 215.707 41.074 213.321 38.832 C 209.779 35.504, 200.023 35.117, 194.204 38.073 M 199.400 52.400 C 196.336 55.464, 196 56.358, 196 61.450 C 196 70.464, 199.307 75, 205.878 75 C 214.151 75, 218.355 62.840, 213.196 53.835 C 209.964 48.194, 204.205 47.595, 199.400 52.400 M 8 98.500 C 9.292 99.875, 10.574 101, 10.849 101 C 11.124 101, 10.292 99.875, 9 98.500 C 7.708 97.125, 6.426 96, 6.151 96 C 5.876 96, 6.708 97.125, 8 98.500 M 235.924 117.750 L 233.500 120.500 236.250 118.076 C 238.820 115.810, 239.459 115, 238.674 115 C 238.495 115, 237.258 116.237, 235.924 117.750 M 170 121.378 C 170 121.585, 170.787 122.373, 171.750 123.128 C 173.336 124.371, 173.371 124.336, 172.128 122.750 C 170.821 121.084, 170 120.555, 170 121.378" stroke="none" fill="#ffffff" fill-rule="evenodd"/><path d="M 197.143 37.493 C 188.189 40.286, 182.882 48.328, 182.198 60.138 C 181.629 69.975, 183.146 75.642, 187.808 81.088 C 194.040 88.370, 202.644 90.033, 211.331 85.636 L 216 83.272 216 86.168 C 216 90.211, 213.554 95.633, 211.150 96.920 C 210.040 97.514, 204.356 98, 198.520 98 C 188.516 98, 187.765 98.144, 185.392 100.517 C 183.541 102.368, 183.057 103.623, 183.560 105.267 C 184.925 109.719, 185.752 110, 197.464 110 C 215.728 110, 223.034 106.615, 227.126 96.255 C 229.267 90.834, 229.402 89.069, 229.450 65.858 C 229.496 42.990, 229.363 41.065, 227.595 39.108 C 224.915 36.142, 220.482 36.377, 217.452 39.646 C 216.104 41.101, 215 41.754, 215 41.097 C 215 39.557, 207.254 36.030, 204 36.089 C 202.625 36.114, 199.539 36.745, 197.143 37.493 M 199.241 51.250 C 192.958 57.957, 193.980 70.870, 201.085 74.544 C 204.649 76.387, 206.374 76.375, 210.033 74.483 C 213.866 72.501, 216 68.210, 216 62.484 C 216 54.316, 211.861 49, 205.500 49 C 202.486 49, 200.771 49.616, 199.241 51.250" stroke="none" fill="#ee2374" fill-rule="evenodd"/><path d="M 139.741 37.429 C 137.673 38.167, 135.404 39.250, 134.699 39.835 C 133.753 40.620, 133.099 40.389, 132.200 38.949 C 130.703 36.552, 124.846 36.297, 122.611 38.532 C 120.213 40.930, 119.813 45.322, 120.168 65.308 C 120.452 81.226, 120.747 84.180, 122.202 85.633 C 124.693 88.121, 129.920 87.817, 132.156 85.056 C 133.763 83.071, 134 80.871, 134 67.945 C 134 53.950, 134.129 52.962, 136.278 50.463 C 139.306 46.943, 145.079 46.636, 148.273 49.825 C 150.340 51.888, 150.536 53.191, 151 67.991 C 151.554 85.671, 152.156 87.333, 158 87.333 C 163.850 87.333, 164.465 85.642, 164.819 68.579 C 165.016 59.058, 164.697 51.590, 163.979 48.923 C 161.292 38.944, 150.215 33.691, 139.741 37.429 M 181.252 62.500 C 181.263 64.700, 181.468 65.482, 181.707 64.238 C 181.946 62.994, 181.937 61.194, 181.687 60.238 C 181.437 59.282, 181.241 60.300, 181.252 62.500 M 204.269 75.693 C 205.242 75.947, 206.592 75.930, 207.269 75.656 C 207.946 75.382, 207.150 75.175, 205.500 75.195 C 203.850 75.215, 203.296 75.439, 204.269 75.693 M 188.500 83 C 189.495 84.100, 190.535 85, 190.810 85 C 191.085 85, 190.495 84.100, 189.500 83 C 188.505 81.900, 187.465 81, 187.190 81 C 186.915 81, 187.505 81.900, 188.500 83 M 229.079 85.583 C 229.127 86.748, 229.364 86.985, 229.683 86.188 C 229.972 85.466, 229.936 84.603, 229.604 84.271 C 229.272 83.939, 229.036 84.529, 229.079 85.583" stroke="none" fill="#f47a20" fill-rule="evenodd"/><path d="M 91 21 C 87.017 24.983, 89.647 32, 95.122 32 C 99.257 32, 101.652 30.523, 102.409 27.506 C 103.049 24.955, 101.667 21.145, 99.600 19.765 C 97.500 18.363, 92.989 19.011, 91 21 M 90.655 38.829 C 89.222 40.412, 89.002 43.535, 89.015 62.079 C 89.024 73.860, 89.361 83.995, 89.765 84.600 C 91.071 86.556, 95.023 88.128, 97.032 87.490 C 101.852 85.960, 102 85.205, 102 62.084 C 102 42.260, 101.836 40.162, 100.171 38.655 C 97.744 36.458, 92.717 36.550, 90.655 38.829" stroke="none" fill="#47aa42" fill-rule="evenodd"/><path d="M 23.655 22.829 C 21.293 25.439, 21.566 29.582, 24.223 31.443 C 25.953 32.655, 29.276 33, 39.223 33 C 46.250 33, 52 33.193, 52 33.429 C 52 33.665, 45.001 43.623, 36.447 55.558 C 22.434 75.110, 20.925 77.613, 21.197 80.856 C 21.675 86.529, 23.509 86.968, 46.795 86.985 L 67.091 87 69.608 84.483 C 71.459 82.632, 71.943 81.377, 71.440 79.733 C 70.060 75.231, 69.439 75.061, 53.332 74.775 L 37.867 74.500 53.040 53.500 C 61.385 41.950, 68.616 31.456, 69.108 30.181 C 70.278 27.149, 69.240 23.199, 66.951 21.974 C 65.945 21.436, 56.223 21, 45.221 21 C 27.202 21, 25.153 21.174, 23.655 22.829" stroke="none" fill="#009ddc" fill-rule="evenodd"/><path d="M 22.872 22.750 C 21.629 24.336, 21.664 24.371, 23.250 23.128 C 24.916 21.821, 25.445 21, 24.622 21 C 24.415 21, 23.627 21.788, 22.872 22.750 M 21.158 27 C 21.158 28.375, 21.385 28.938, 21.662 28.250 C 21.940 27.563, 21.940 26.438, 21.662 25.750 C 21.385 25.063, 21.158 25.625, 21.158 27 M 20.079 80.583 C 20.127 81.748, 20.364 81.985, 20.683 81.188 C 20.972 80.466, 20.936 79.603, 20.604 79.271 C 20.272 78.939, 20.036 79.529, 20.079 80.583" stroke="none" fill="#1fa3a2" fill-rule="evenodd"/><path d="M 83.672 2.909 L 78.141 5.819 73.821 3.659 C 69.864 1.682, 67.669 1.473, 47.747 1.180 C 22.727 0.812, 18.150 1.612, 11.189 7.571 C 4.732 13.097, 2.546 18.011, 2.546 27 C 2.546 32.768, 3.047 35.446, 4.714 38.595 C 6.856 42.640, 13.164 49, 15.035 49 C 16.782 49, 16.066 50.414, 10.049 58.849 C 6.775 63.437, 3.344 69.460, 2.423 72.232 C -1.729 84.732, 4.498 98.269, 17 103.921 C 21.140 105.793, 23.499 105.956, 46.500 105.956 C 68.893 105.956, 71.935 105.759, 75.669 104.063 C 79.812 102.182, 79.864 102.184, 84.169 104.335 C 90.222 107.361, 100.807 107.346, 106.895 104.304 L 111.290 102.107 115.395 104.281 C 121.139 107.321, 132.815 107.346, 138.507 104.330 L 142.514 102.207 146.507 104.297 C 149.353 105.786, 152.430 106.403, 157.220 106.443 C 163.858 106.499, 163.948 106.537, 164.592 109.500 C 166.333 117.511, 173.787 125.957, 181.031 128.128 C 183.241 128.790, 191.057 129.071, 201.077 128.848 C 217.098 128.493, 217.665 128.406, 224.223 125.307 C 236.966 119.286, 244.504 109.549, 247.551 95.174 C 249.247 87.169, 249.566 42.577, 247.967 36.823 C 246.081 30.030, 240.997 23.798, 234.739 20.609 C 229.032 17.700, 228.812 17.671, 211.239 17.586 C 194.132 17.503, 193.303 17.593, 187.954 20.101 C 184.904 21.532, 180.719 24.186, 178.654 25.999 L 174.900 29.295 171.700 26.202 C 169.940 24.500, 165.800 21.846, 162.500 20.304 C 156.633 17.562, 156.106 17.500, 138.729 17.500 L 120.958 17.500 118.074 12.452 C 113.292 4.081, 105.905 0, 95.536 0 C 90.477 0, 88.090 0.585, 83.672 2.909 M 88.572 4.427 C 86.412 5.230, 83.322 6.865, 81.704 8.061 L 78.763 10.235 74.632 7.868 C 70.670 5.597, 69.555 5.487, 47.500 5.174 C 22.058 4.813, 19.048 5.263, 13.326 10.287 C 8.595 14.441, 6.049 20.190, 6.022 26.782 C 5.985 35.725, 9.802 42.298, 17.250 46.118 C 19.312 47.175, 21 48.371, 21 48.774 C 21 49.177, 18.247 53.330, 14.883 58.003 C 6.738 69.317, 5.047 73.180, 5.031 80.500 C 5.014 88.963, 8.816 95.475, 16.148 99.535 L 21.500 102.500 46.500 102.500 C 70.501 102.500, 71.668 102.410, 75.703 100.253 L 79.907 98.007 84.602 100.503 C 91.163 103.992, 99.864 103.977, 106.465 100.467 L 111.228 97.935 116.310 100.467 C 123.187 103.894, 130.851 103.916, 137.541 100.529 L 142.421 98.059 147.741 100.662 C 152.368 102.926, 153.961 103.200, 159.976 102.770 C 167.406 102.238, 168 102.597, 168 107.622 C 168 113.907, 175.728 122.998, 182.723 124.940 C 187.438 126.249, 204.571 126.304, 212.321 125.035 C 224.966 122.964, 234.797 116.194, 239.962 106 C 244.367 97.308, 245 92.047, 245 64.130 L 245 38.359 242.250 32.930 C 239.301 27.109, 235.036 23.590, 229.099 22.080 C 227.120 21.577, 218.300 21.240, 209.500 21.333 C 194.244 21.492, 193.240 21.628, 187.907 24.247 C 184.830 25.758, 180.631 28.628, 178.575 30.625 L 174.836 34.256 170.668 30.232 C 168.376 28.020, 164.475 25.150, 162 23.855 C 157.722 21.616, 156.538 21.500, 138 21.500 L 118.500 21.500 115.500 15.500 C 113.207 10.913, 111.414 8.839, 107.889 6.692 C 102.225 3.243, 94.272 2.310, 88.572 4.427 M 88.421 9.896 C 84.748 11.565, 80.690 15.431, 79.796 18.113 C 79.610 18.670, 77.558 17.319, 75.236 15.110 C 72.846 12.836, 69.601 10.830, 67.757 10.486 C 65.966 10.152, 54.744 10.018, 42.820 10.189 C 22.753 10.477, 20.936 10.653, 18.382 12.562 C 12.263 17.136, 9.514 23.913, 11.039 30.673 C 12.648 37.805, 18.220 42.591, 26.360 43.830 L 30.761 44.500 21.762 57 C 16.812 63.875, 12.103 71.038, 11.298 72.917 C 8.327 79.850, 9.874 87.759, 15.169 92.702 C 20.259 97.455, 23.481 98, 46.500 98 C 69.802 98, 72.814 97.466, 78.104 92.400 L 80.708 89.906 82.279 92.303 C 87.388 100.101, 103.458 99.783, 109.162 91.772 L 111.285 88.791 113.731 91.915 C 117.124 96.251, 121 98.001, 127.200 97.996 C 132.960 97.992, 137.486 95.883, 140.603 91.752 L 142.419 89.344 144.828 92.208 C 148.266 96.293, 152.147 98, 158 98 C 166.017 98, 171.901 93.882, 174.441 86.494 L 175.712 82.798 177.866 86.283 L 180.019 89.768 177.136 92.855 C 171.156 99.256, 171.160 108.696, 177.147 115.515 C 181.448 120.413, 185.498 121.309, 201.121 120.821 C 213.117 120.446, 215.133 120.115, 220.626 117.620 C 228.194 114.183, 233.048 109.315, 236.698 101.500 L 239.500 95.500 239.765 67 C 240.025 38.975, 239.991 38.433, 237.761 34.500 C 234.465 28.689, 228.222 25.689, 221 26.445 C 213.471 27.233, 214.026 27.254, 209 25.992 C 203.667 24.653, 197.207 25.420, 191 28.129 C 185.765 30.414, 177.656 38.003, 175.887 42.272 L 174.662 45.231 172.722 41.365 C 167.959 31.872, 158.176 25.709, 148.031 25.812 C 125.096 26.043, 123.400 26.172, 119.279 27.995 C 116.791 29.095, 114.221 31.228, 113.030 33.182 C 110.632 37.116, 110.467 36.115, 112.534 30.179 C 115.164 22.628, 111.298 13.775, 103.782 10.137 C 98.390 7.526, 93.798 7.455, 88.421 9.896 M 88.933 15.266 C 86.993 16.574, 84.948 19.167, 84.099 21.400 C 82.777 24.874, 82.799 25.755, 84.313 30.020 C 85.827 34.281, 85.847 35.065, 84.506 37.635 C 82.360 41.752, 82.312 82.768, 84.449 86.901 C 86.543 90.951, 90.255 93, 95.500 93 C 100.745 93, 104.457 90.951, 106.551 86.901 C 108.702 82.742, 108.639 41.750, 106.476 37.602 C 105.117 34.996, 105.126 34.456, 106.566 32.260 C 108.595 29.162, 108.635 21.745, 106.638 18.894 C 102.441 12.901, 94.774 11.330, 88.933 15.266 M 20.167 17.513 C 16.180 20.868, 14.698 25.948, 16.306 30.745 C 18.113 36.138, 21.744 38.274, 30.226 38.935 C 35.917 39.378, 37.548 39.859, 37.797 41.167 C 37.972 42.083, 33.439 49.283, 27.726 57.167 C 15.096 74.591, 15 74.766, 15 80.358 C 15 85.902, 18.437 90.458, 23.824 92.052 C 26.133 92.736, 35.374 93.021, 48.680 92.820 C 68.387 92.522, 70.056 92.353, 72.679 90.393 C 79.269 85.467, 79.278 74.970, 72.696 70.956 C 70.268 69.475, 67.668 69.007, 61.872 69.004 C 56.418 69.001, 53.901 68.585, 53.036 67.544 C 51.580 65.789, 50.962 66.848, 63.856 49.018 C 69.616 41.054, 74.765 33.118, 75.297 31.383 C 76.711 26.775, 75.407 21.764, 71.924 18.425 L 68.873 15.500 46.074 15.199 L 23.275 14.897 20.167 17.513 M 94.813 18.683 C 95.534 18.972, 96.397 18.936, 96.729 18.604 C 97.061 18.272, 96.471 18.036, 95.417 18.079 C 94.252 18.127, 94.015 18.364, 94.813 18.683 M 35.803 20.746 C 41.470 20.925, 50.470 20.924, 55.803 20.745 C 61.136 20.565, 56.500 20.419, 45.500 20.420 C 34.500 20.421, 30.136 20.568, 35.803 20.746 M 138.886 31.336 C 136.349 32.043, 133.424 32.288, 132.386 31.881 C 129.210 30.634, 124.053 30.921, 120.967 32.517 C 115.475 35.357, 114.594 38.646, 114.176 57.863 C 113.671 81.052, 114.271 85.471, 118.497 89.697 C 121.347 92.547, 122.480 93, 126.765 93 C 130.344 93, 132.500 92.395, 134.486 90.832 C 139.093 87.209, 140 83.475, 140 68.139 C 140 54.089, 140.398 52.561, 143.750 53.731 C 144.664 54.050, 145.001 57.703, 145.006 67.333 C 145.009 74.575, 145.472 82.159, 146.035 84.186 C 149.355 96.141, 166.762 96.026, 169.993 84.027 C 171.271 79.280, 170.634 48.519, 169.182 44.861 C 167.622 40.932, 162.172 35.129, 158.084 33.043 C 153.147 30.524, 144.544 29.759, 138.886 31.336 M 199.500 30.681 C 190.391 32.727, 183.549 38.053, 179.233 46.460 C 177.217 50.386, 176.549 53.400, 176.208 60.098 C 175.678 70.509, 177.490 77.699, 182.224 83.963 C 187.772 91.305, 187.690 91.096, 185.530 92.353 C 181.879 94.479, 178.268 98.908, 177.645 102.026 C 176.847 106.013, 178.945 111.022, 182.629 113.931 C 185.366 116.093, 186.154 116.180, 199.500 115.803 C 211.338 115.469, 214.272 115.060, 218.500 113.153 C 225.007 110.218, 229.315 105.957, 232.184 99.618 C 234.394 94.735, 234.514 93.251, 234.808 67.313 C 235.072 44.109, 234.886 39.680, 233.541 37.080 C 230.855 31.885, 223.810 29.601, 217.672 31.934 C 215.982 32.577, 213.728 32.421, 210.448 31.434 C 205.687 30.001, 203.268 29.835, 199.500 30.681 M 94.750 32.662 C 95.438 32.940, 96.563 32.940, 97.250 32.662 C 97.938 32.385, 97.375 32.158, 96 32.158 C 94.625 32.158, 94.063 32.385, 94.750 32.662 M 79 35.164 C 79 35.804, 74.526 42.554, 69.057 50.164 L 59.115 64 64.597 64 C 68.125 64, 71.492 64.720, 74.040 66.020 L 78 68.041 78 53.971 C 78 43.315, 78.370 39.185, 79.526 36.950 C 80.400 35.259, 80.614 34, 80.026 34 C 79.462 34, 79 34.524, 79 35.164 M 94.269 36.693 C 95.242 36.947, 96.592 36.930, 97.269 36.656 C 97.946 36.382, 97.150 36.175, 95.500 36.195 C 93.850 36.215, 93.296 36.439, 94.269 36.693 M 125.750 36.662 C 126.438 36.940, 127.563 36.940, 128.250 36.662 C 128.938 36.385, 128.375 36.158, 127 36.158 C 125.625 36.158, 125.063 36.385, 125.750 36.662 M 140.813 36.683 C 141.534 36.972, 142.397 36.936, 142.729 36.604 C 143.061 36.272, 142.471 36.036, 141.417 36.079 C 140.252 36.127, 140.015 36.364, 140.813 36.683 M 221.750 36.662 C 222.438 36.940, 223.563 36.940, 224.250 36.662 C 224.938 36.385, 224.375 36.158, 223 36.158 C 221.625 36.158, 221.063 36.385, 221.750 36.662 M 89.872 38.750 C 88.629 40.336, 88.664 40.371, 90.250 39.128 C 91.916 37.821, 92.445 37, 91.622 37 C 91.415 37, 90.627 37.788, 89.872 38.750 M 99 37.378 C 99 37.585, 99.787 38.373, 100.750 39.128 C 102.336 40.371, 102.371 40.336, 101.128 38.750 C 99.821 37.084, 99 36.555, 99 37.378 M 136.507 37.989 C 136.157 38.555, 136.558 38.723, 137.448 38.382 C 139.180 37.717, 139.497 37, 138.059 37 C 137.541 37, 136.843 37.445, 136.507 37.989 M 159.500 41 C 160.495 42.100, 161.535 43, 161.810 43 C 162.085 43, 161.495 42.100, 160.500 41 C 159.505 39.900, 158.465 39, 158.190 39 C 157.915 39, 158.505 39.900, 159.500 41 M 188.405 42.250 L 186.500 44.500 188.750 42.595 C 189.988 41.547, 191 40.535, 191 40.345 C 191 39.545, 190.195 40.136, 188.405 42.250 M 88.422 62 C 88.422 73.275, 88.568 77.888, 88.746 72.250 C 88.924 66.612, 88.924 57.388, 88.746 51.750 C 88.568 46.112, 88.422 50.725, 88.422 62 M 102.422 62 C 102.422 73.275, 102.568 77.888, 102.746 72.250 C 102.924 66.612, 102.924 57.388, 102.746 51.750 C 102.568 46.112, 102.422 50.725, 102.422 62 M 164.079 49.583 C 164.127 50.748, 164.364 50.985, 164.683 50.188 C 164.972 49.466, 164.936 48.603, 164.604 48.271 C 164.272 47.939, 164.036 48.529, 164.079 49.583 M 198.872 51.750 C 197.629 53.336, 197.664 53.371, 199.250 52.128 C 200.213 51.373, 201 50.585, 201 50.378 C 201 49.555, 200.179 50.084, 198.872 51.750 M 215.079 59.583 C 215.127 60.748, 215.364 60.985, 215.683 60.188 C 215.972 59.466, 215.936 58.603, 215.604 58.271 C 215.272 57.939, 215.036 58.529, 215.079 59.583 M 195.252 62.500 C 195.263 64.700, 195.468 65.482, 195.707 64.238 C 195.946 62.994, 195.937 61.194, 195.687 60.238 C 195.437 59.282, 195.241 60.300, 195.252 62.500 M 215.079 65.583 C 215.127 66.748, 215.364 66.985, 215.683 66.188 C 215.972 65.466, 215.936 64.603, 215.604 64.271 C 215.272 63.939, 215.036 64.529, 215.079 65.583 M 181.079 67.583 C 181.127 68.748, 181.364 68.985, 181.683 68.188 C 181.972 67.466, 181.936 66.603, 181.604 66.271 C 181.272 65.939, 181.036 66.529, 181.079 67.583 M 46.296 74.744 C 50.583 74.932, 57.333 74.931, 61.296 74.742 C 65.258 74.552, 61.750 74.399, 53.500 74.400 C 45.250 74.401, 42.008 74.556, 46.296 74.744 M 120.079 82.583 C 120.127 83.748, 120.364 83.985, 120.683 83.188 C 120.972 82.466, 120.936 81.603, 120.604 81.271 C 120.272 80.939, 120.036 81.529, 120.079 82.583 M 91.733 87.124 C 92.412 87.808, 93.219 88.115, 93.526 87.807 C 93.834 87.499, 93.279 86.940, 92.293 86.564 C 90.868 86.022, 90.753 86.136, 91.733 87.124 M 98 87 C 97.099 87.582, 96.975 87.975, 97.691 87.985 C 98.346 87.993, 99.160 87.550, 99.500 87 C 100.267 85.758, 99.921 85.758, 98 87 M 229.079 88.583 C 229.127 89.748, 229.364 89.985, 229.683 89.188 C 229.972 88.466, 229.936 87.603, 229.604 87.271 C 229.272 86.939, 229.036 87.529, 229.079 88.583 M 201.269 88.693 C 202.242 88.947, 203.592 88.930, 204.269 88.656 C 204.946 88.382, 204.150 88.175, 202.500 88.195 C 200.850 88.215, 200.296 88.439, 201.269 88.693 M 222.872 103.750 C 221.629 105.336, 221.664 105.371, 223.250 104.128 C 224.213 103.373, 225 102.585, 225 102.378 C 225 101.555, 224.179 102.084, 222.872 103.750 M 192.280 110.736 C 194.909 110.943, 198.959 110.940, 201.280 110.731 C 203.601 110.521, 201.450 110.352, 196.500 110.355 C 191.550 110.358, 189.651 110.530, 192.280 110.736" stroke="none" fill="#e4e2e1" fill-rule="evenodd"/></svg>