<svg width="14" height="14" viewBox="0 0 14 14" fill="none" xmlns="http://www.w3.org/2000/svg">
<g clip-path="url(#clip0_2001_13)">
<path d="M7.18506 13.4167H3.22763C2.52681 13.4151 1.85515 13.136 1.3596 12.6404C0.864047 12.1449 0.584951 11.4732 0.583374 10.7724V6.81498C0.583372 6.11313 0.861772 5.43994 1.3575 4.9431C1.85322 4.44625 2.52578 4.16634 3.22763 4.16476H7.18506C7.88794 4.16476 8.56204 4.44398 9.05905 4.94099C9.55606 5.438 9.83528 6.1121 9.83528 6.81498V10.7724C9.8337 11.4743 9.55379 12.1468 9.05694 12.6425C8.5601 13.1383 7.88691 13.4167 7.18506 13.4167V13.4167ZM3.22763 5.0601C2.76324 5.06168 2.31841 5.24727 1.9906 5.5762C1.66279 5.90513 1.47872 6.35059 1.47872 6.81498V10.7724C1.47872 11.2363 1.66298 11.6811 1.99096 12.0091C2.31895 12.3371 2.76379 12.5213 3.22763 12.5213H7.18506C7.64945 12.5213 8.09491 12.3373 8.42384 12.0094C8.75277 11.6816 8.93836 11.2368 8.93994 10.7724V6.81498C8.93994 6.34956 8.75505 5.9032 8.42595 5.57409C8.09684 5.24499 7.65048 5.0601 7.18506 5.0601H3.22763ZM11.5066 9.72784C12.0572 9.56769 12.541 9.23328 12.8854 8.77479C13.2298 8.31631 13.4162 7.75849 13.4167 7.18506V3.22763C13.4151 2.52681 13.136 1.85515 12.6404 1.3596C12.1449 0.864045 11.4732 0.584949 10.7724 0.583372H6.81498C6.26117 0.580329 5.72045 0.751641 5.26943 1.07303C4.81841 1.39443 4.47996 1.8496 4.30204 2.37406C4.27834 2.43095 4.26664 2.49211 4.26766 2.55372C4.26869 2.61534 4.28243 2.67608 4.30801 2.73214C4.3336 2.7882 4.37048 2.83837 4.41636 2.87952C4.46223 2.92067 4.5161 2.9519 4.5746 2.97126C4.63311 2.99063 4.69498 2.9977 4.75634 2.99205C4.8177 2.9864 4.87724 2.96814 4.93122 2.93841C4.9852 2.90869 5.03246 2.86814 5.07004 2.8193C5.10763 2.77047 5.13473 2.7144 5.14964 2.65461C5.2664 2.30576 5.49019 2.00261 5.78917 1.78828C6.08816 1.57396 6.44712 1.45937 6.81498 1.46081H10.7724C11.2363 1.46081 11.6811 1.64507 12.0091 1.97305C12.3371 2.30104 12.5213 2.74588 12.5213 3.20972V7.16715C12.5152 7.54542 12.3895 7.91205 12.1622 8.21445C11.9349 8.51685 11.6176 8.73948 11.2559 8.8504C11.1419 8.88365 11.0458 8.96081 10.9887 9.06491C10.9316 9.16902 10.9182 9.29154 10.9515 9.40552C10.9847 9.5195 11.0619 9.6156 11.166 9.67269C11.2701 9.72978 11.3926 9.74318 11.5066 9.70993V9.72784Z" fill="#424242"/>
</g>
<defs>
<clipPath id="clip0_2001_13">
<rect width="14" height="14" fill="white"/>
</clipPath>
</defs>
</svg>
