<svg width="14" height="15" viewBox="0 0 14 15" fill="none" xmlns="http://www.w3.org/2000/svg">
<path d="M4.3575 8.18416C4.28022 8.10123 4.23815 7.99153 4.24015 7.87819C4.24215 7.76485 4.28806 7.65671 4.36822 7.57655C4.44838 7.49639 4.55652 7.45048 4.66986 7.44848C4.7832 7.44648 4.8929 7.48855 4.97583 7.56583L6.5625 9.1525V3.20833C6.5625 3.0923 6.60859 2.98102 6.69064 2.89897C6.77269 2.81692 6.88397 2.77083 7 2.77083C7.11603 2.77083 7.22731 2.81692 7.30936 2.89897C7.39141 2.98102 7.4375 3.0923 7.4375 3.20833V9.1525L9.02417 7.56583C9.1071 7.48855 9.2168 7.44648 9.33014 7.44848C9.44348 7.45048 9.55162 7.49639 9.63178 7.57655C9.71194 7.65671 9.75785 7.76485 9.75985 7.87819C9.76185 7.99153 9.71978 8.10123 9.6425 8.18416L7.30917 10.5175C7.22713 10.5994 7.11594 10.6454 7 10.6454C6.88406 10.6454 6.77286 10.5994 6.69083 10.5175L4.3575 8.18416ZM12.25 9.1875C12.1344 9.18901 12.024 9.23558 11.9423 9.31731C11.8606 9.39903 11.814 9.50943 11.8125 9.625V11.9583C11.8125 11.997 11.7971 12.0341 11.7698 12.0614C11.7424 12.0888 11.7053 12.1042 11.6667 12.1042H2.33333C2.29466 12.1042 2.25756 12.0888 2.23021 12.0614C2.20286 12.0341 2.1875 11.997 2.1875 11.9583V9.625C2.1875 9.50896 2.14141 9.39768 2.05936 9.31564C1.97731 9.23359 1.86603 9.1875 1.75 9.1875C1.63397 9.1875 1.52269 9.23359 1.44064 9.31564C1.35859 9.39768 1.3125 9.50896 1.3125 9.625V11.9583C1.31403 12.2286 1.42207 12.4874 1.61319 12.6785C1.8043 12.8696 2.06306 12.9776 2.33333 12.9792H11.6667C11.9369 12.9776 12.1957 12.8696 12.3868 12.6785C12.5779 12.4874 12.686 12.2286 12.6875 11.9583V9.625C12.686 9.50943 12.6394 9.39903 12.5577 9.31731C12.476 9.23558 12.3656 9.18901 12.25 9.1875Z" fill="#068D4C"/>
</svg>
