<svg width="25" height="25" viewBox="0 0 25 25" fill="none" xmlns="http://www.w3.org/2000/svg">
<path fill-rule="evenodd" clip-rule="evenodd" d="M18.6538 20.3321C19.3619 20.3321 19.9359 19.7565 19.9359 19.0464V16.9893C19.9359 16.5632 20.2803 16.2179 20.7051 16.2179C21.13 16.2179 21.4744 16.5632 21.4744 16.9893V19.0464C21.4744 20.6086 20.2116 21.875 18.6538 21.875H16.6026C16.1777 21.875 15.8333 21.5296 15.8333 21.1036C15.8333 20.6775 16.1777 20.3321 16.6026 20.3321H18.6538Z" fill="white"/>
<path fill-rule="evenodd" clip-rule="evenodd" d="M18.6538 5.41786C19.3619 5.41786 19.9359 5.99349 19.9359 6.70357V8.76071C19.9359 9.18676 20.2803 9.53214 20.7051 9.53214C21.13 9.53214 21.4744 9.18676 21.4744 8.76071V6.70357C21.4744 5.14139 20.2116 3.875 18.6538 3.875H16.6026C16.1777 3.875 15.8333 4.22038 15.8333 4.64643C15.8333 5.07248 16.1777 5.41786 16.6026 5.41786H18.6538Z" fill="white"/>
<path fill-rule="evenodd" clip-rule="evenodd" d="M6.34614 20.3321C5.63809 20.3321 5.06409 19.7565 5.06409 19.0464V16.9893C5.06409 16.5632 4.7197 16.2179 4.29486 16.2179C3.87003 16.2179 3.52563 16.5632 3.52563 16.9893V19.0464C3.52563 20.6086 4.78842 21.875 6.34614 21.875H8.39743C8.82226 21.875 9.16666 21.5296 9.16666 21.1036C9.16666 20.6775 8.82226 20.3321 8.39743 20.3321H6.34614Z" fill="white"/>
<path fill-rule="evenodd" clip-rule="evenodd" d="M6.34614 5.41786C5.63809 5.41786 5.06409 5.99349 5.06409 6.70357V8.76072C5.06409 9.18676 4.7197 9.53214 4.29486 9.53214C3.87003 9.53214 3.52563 9.18676 3.52563 8.76072V6.70357C3.52563 5.1414 4.78842 3.875 6.34614 3.875H8.39743C8.82226 3.875 9.16666 4.22038 9.16666 4.64643C9.16666 5.07248 8.82226 5.41786 8.39743 5.41786H6.34614Z" fill="white"/>
<path fill-rule="evenodd" clip-rule="evenodd" d="M22.5 12.875C22.5 13.301 22.1556 13.6464 21.7308 13.6464H3.26923C2.8444 13.6464 2.5 13.301 2.5 12.875C2.5 12.449 2.8444 12.1036 3.26923 12.1036H21.7308C22.1556 12.1036 22.5 12.449 22.5 12.875Z" fill="white"/>
</svg>
